<svg width="32" height="32" viewBox="0 0 32 32" fill="none" xmlns="http://www.w3.org/2000/svg">
<path d="M30.2336 5.65512e-08H1.76489C0.790039 0.000488338 -0.000244084 0.79126 5.65512e-08 1.76636V30.2351C0.000488338 31.21 0.79126 32.0002 1.76636 32H30.2336C31.209 32.0002 31.9998 31.2097 32 30.2344C32 30.2341 32 30.2339 32 30.2336V1.76489C31.9995 0.790039 31.2087 -0.000244084 30.2336 5.65512e-08Z" fill="white"/>
<path d="M22.0953 32V19.7252H26.2395L26.8603 14.9206H22.0953V11.8606C22.0953 10.4728 22.4812 9.52711 24.4742 9.52711H27V5.24152C26.5606 5.18316 25.0528 5.05264 23.2985 5.05264C19.6355 5.05264 17.1286 7.28443 17.1286 11.3848V14.9206H13V19.7252H17.1286V32H22.0953Z" fill="#4267B2"/>
</svg>
