<svg width="32" height="32" viewBox="0 0 32 32" fill="none" xmlns="http://www.w3.org/2000/svg">
<rect width="32" height="32" rx="2" fill="white"/>
<g clip-path="url(#clip0)">
<path d="M10.5643 17.9507L9.78461 20.9052L6.93478 20.9664C6.08309 19.363 5.60001 17.5285 5.60001 15.5789C5.60001 13.6938 6.05168 11.9161 6.85231 10.3507H6.85292L9.39007 10.8229L10.5015 13.3827C10.2689 14.0711 10.1421 14.81 10.1421 15.5789C10.1422 16.4135 10.2911 17.213 10.5643 17.9507Z" fill="#FBBB00"/>
<path d="M27.8043 13.4552C27.9329 14.1429 28 14.8531 28 15.5789C28 16.3929 27.9157 17.1868 27.7551 17.9526C27.2099 20.5586 25.7853 22.8341 23.8117 24.4445L23.8111 24.4438L20.6154 24.2783L20.1632 21.4125C21.4727 20.6329 22.4961 19.413 23.0352 17.9526H17.0462V13.4552H23.1225H27.8043Z" fill="#518EF8"/>
<path d="M23.8111 24.4438L23.8117 24.4444C21.8923 26.0104 19.4541 26.9474 16.8 26.9474C12.5348 26.9474 8.82648 24.5275 6.93478 20.9665L10.5643 17.9507C11.5102 20.513 13.9452 22.3369 16.8 22.3369C18.0271 22.3369 19.1766 22.0002 20.1631 21.4125L23.8111 24.4438Z" fill="#28B446"/>
<path d="M23.9489 6.82775L20.3206 9.84287C19.2997 9.19513 18.0929 8.82095 16.8 8.82095C13.8806 8.82095 11.4 10.7286 10.5015 13.3827L6.85292 10.3507H6.85231C8.71632 6.70283 12.4714 4.21053 16.8 4.21053C19.5175 4.21053 22.0092 5.19309 23.9489 6.82775Z" fill="#F14336"/>
</g>
<defs>
<clipPath id="clip0">
<rect width="22.4" height="22.7368" fill="white" transform="translate(5.60001 4.21053)"/>
</clipPath>
</defs>
</svg>
