<svg width="501" height="322" viewBox="0 0 501 322" fill="none" xmlns="http://www.w3.org/2000/svg">
<path d="M72.0278 13.3978C139.519 -17.2344 208.113 9.8468 254.635 68.8332C277.903 98.3353 313.957 88.1412 350.666 77.949C387.352 67.7608 424.691 57.5745 450.573 87.0091C485.91 127.198 469.725 230.526 421.27 275.279C355.411 336.11 155.121 305.244 111.796 294.892C61.8809 282.965 25.3894 246.779 10.563 202.861C-25.1614 97.0385 42.2025 26.9344 72.0278 13.3978Z" fill="#E7F3FE"/>
<path d="M273.692 105.204C267.071 105.204 261.702 99.8322 261.702 93.2042C261.702 86.5783 267.071 81.2069 273.692 81.2069C280.316 81.2069 285.683 86.5783 285.683 93.2042C285.683 99.8322 280.316 105.204 273.692 105.204ZM302.472 92.6521C302.472 92.1284 302.457 91.6066 302.429 91.089L309.091 85.7359C308.568 83.0644 307.75 80.5005 306.671 78.0787L298.07 77.4271C296.114 74.3395 293.58 71.6538 290.623 69.5223L290.594 60.9435C288.199 59.6869 285.645 58.6902 282.969 58L277.09 64.3316C276.076 64.2219 275.048 64.1631 274.005 64.1631C271.414 64.1631 268.905 64.5122 266.519 65.1598L259.778 59.8189C257.235 60.9232 254.845 62.3158 252.648 63.956L253.924 72.4597C251.411 74.9627 249.364 77.9325 247.919 81.2272L239.533 83.174C238.825 85.7643 238.399 88.4723 238.294 91.2636L245.68 95.5367C246.057 99.28 247.159 102.808 248.84 105.981L245.142 113.732C246.729 115.902 248.552 117.889 250.577 119.649L258.496 116.545C261.61 118.573 265.144 120.008 268.94 120.69L272.672 128.382C273.116 128.398 273.563 128.411 274.013 128.411C276.248 128.411 278.437 128.201 280.561 127.808L283.079 119.661C286.744 118.429 290.077 116.468 292.905 113.953L301.23 115.825C302.938 113.819 304.427 111.622 305.665 109.272L300.839 102.179C301.896 99.2009 302.472 95.9935 302.472 92.6521Z" fill="#9EC8FF"/>
<path d="M84.0956 152.725C78.8421 148.695 77.851 141.165 81.8852 135.906C85.9181 130.649 93.4479 129.655 98.7014 133.685C103.956 137.717 104.946 145.246 100.913 150.503C96.8788 155.762 89.3506 156.756 84.0956 152.725ZM114.57 160.283C114.888 159.868 115.195 159.445 115.487 159.017L124.031 158.824C125.242 156.386 126.154 153.854 126.771 151.276L120.344 145.524C120.671 141.884 120.296 138.211 119.246 134.719L124.446 127.895C123.31 125.44 121.89 123.095 120.187 120.919L111.669 122.364C110.931 121.66 110.15 120.987 109.323 120.352C107.268 118.776 105.064 117.525 102.777 116.587L100.68 108.247C97.9892 107.574 95.2456 107.225 92.5041 107.189L88.3407 114.713C84.823 115.169 81.3913 116.28 78.24 118.015L70.4013 114.455C68.263 116.079 66.2767 117.969 64.4941 120.119L67.7535 128.005C65.7744 131.205 64.501 134.675 63.904 138.216L56.2524 142.114C56.1902 144.802 56.4276 147.488 56.9626 150.117L65.1354 152.475C66.3717 155.979 68.3019 159.269 70.8982 162.12L69.1781 170.495C69.5207 170.778 69.8674 171.059 70.2247 171.333C71.9984 172.694 73.8623 173.86 75.7872 174.841L82.743 169.909C86.4014 171.163 90.2394 171.635 94.014 171.361L99.4803 177.913C102.056 177.362 104.575 176.525 106.987 175.413L107.475 166.848C110.126 165.129 112.536 162.934 114.57 160.283Z" fill="#9EC8FF"/>
<path d="M452.368 299.249C420.349 297.136 311.427 300.715 278.3 302.109C245.173 303.505 206.721 300.269 186.746 295.511C166.772 290.754 51.3155 295.916 56.5549 308.709C61.7942 321.502 107.996 314.431 160.391 319.572C212.785 324.714 330.62 318.93 357.199 319.572C383.78 320.216 408.153 318.288 442.407 315.716C476.661 313.147 470.929 300.472 452.368 299.249Z" fill="#CCE2FF"/>
<path d="M323.839 202.594H169.27C168.341 202.594 167.588 201.841 167.588 200.911V198.388C167.588 197.458 168.341 196.705 169.27 196.705H323.839C324.768 196.705 325.521 197.458 325.521 198.388V200.911C325.521 201.841 324.768 202.594 323.839 202.594Z" fill="#2E5B9A"/>
<path d="M363.639 117.776C365.733 125.165 360.619 132.778 354.983 134.378C349.348 135.977 345.327 130.957 343.234 123.568C341.138 116.179 344.009 108.893 349.644 107.293C355.28 105.694 361.544 110.387 363.639 117.776Z" fill="#F09959"/>
<path d="M332.046 260.952C332.046 260.952 346.488 283.398 348.439 284.372C350.389 285.349 355.265 285.592 353.436 289.252C351.608 292.913 350.876 307.307 349.17 308.038C347.464 308.771 332.836 310.478 335.028 308.038C337.223 305.598 338.572 306.818 339.68 302.427C340.788 298.036 342.343 289.742 340.27 288.032C338.199 286.325 325.521 270.954 325.521 270.954L332.046 260.952Z" fill="#F09959"/>
<path d="M259.363 270.591C259.363 270.591 241.809 299.544 238.558 302.147C235.308 304.749 224.579 308.653 233.356 309.303C242.134 309.954 246.36 306.375 251.885 304.749C257.413 303.123 264.239 302.147 261.639 297.916C259.038 293.688 260.117 284.455 265.724 278.601C271.331 272.744 259.363 270.591 259.363 270.591Z" fill="#F09959"/>
<path d="M348.946 203.452C348.946 203.452 305.49 202.316 288.262 216.465C278.184 231.755 253.804 276.867 251.907 281.839C253.208 283.14 260.523 285.489 263.775 285.164C273.364 273.721 286.04 263.829 291.081 254.852C297.293 243.793 299.208 238.261 309.286 237.286C319.364 236.31 342.12 233.056 348.946 233.056C355.772 233.056 348.946 203.452 348.946 203.452Z" fill="#6791C9"/>
<path d="M386.842 309.382H384.564L368.23 241.182H373.24L386.842 309.382Z" fill="#2E5B9A"/>
<path d="M318.605 309.382H320.883L339.627 238.772H334.617L318.605 309.382Z" fill="#2E5B9A"/>
<path d="M373.703 200.474L348.439 204.839C348.439 204.839 314.864 205.147 299.518 208.008C285.555 210.61 283.496 226.485 299.518 248.346C308.618 260.765 316.313 270.67 332.046 281.839C336.049 278.899 337.58 277.787 338.686 270.71C337.548 269.147 334.6 259.369 333.685 257.454C324.981 239.249 313.365 232.63 313.203 230.837C315.154 227.666 364.869 247.369 374.752 235.78C384.191 224.713 373.703 200.474 373.703 200.474Z" fill="#75A1DE"/>
<path d="M374.752 143.237C368.098 142.301 361.323 143.567 354.983 148.159C349.445 153.809 343.179 163.124 343.562 178.494C344.049 198.012 340.544 199.264 344.201 204.632C359.454 210.935 385.54 238.015 379.397 208.984C374.948 187.961 389.152 172.292 377.695 148.973C376.762 147.075 375.596 145.234 374.752 143.237Z" fill="#F37168"/>
<path d="M343.558 185.838C343.262 196.014 341.826 199.011 342.923 202.202C349.141 202.837 360.515 205.326 363.357 209.309C366.609 213.862 369.861 214.514 368.344 211.152C366.826 207.79 362.816 203.02 368.993 186.646C375.17 170.27 378.095 159.211 372.027 147.824L343.558 185.838Z" fill="#D54A41"/>
<path d="M374.752 143.236C370.656 133.529 369.65 122.624 369.65 122.624L358.921 125.795C358.921 125.795 365.017 139.457 359.166 144.337C357.921 145.374 356.478 146.633 354.983 148.159C361.323 143.567 368.098 142.301 374.752 143.236Z" fill="#F09959"/>
<path d="M369.972 125.208C369.338 124.642 368.542 123.937 367.707 123.198L358.957 125.785L358.939 125.833C359.15 126.316 361.377 131.519 361.671 136.525C364.278 134.944 367.134 132.362 370.398 127.853C370.222 126.852 370.082 125.961 369.972 125.208Z" fill="#E38540"/>
<path d="M367.212 146.29C356.162 150.155 357.388 161.803 347.22 178.981C341.956 187.872 337.069 187.738 337.069 187.738C337.069 187.738 324.727 187.838 309.801 186.011C300.454 184.868 299.859 187.653 306.361 189.977C319.471 194.669 333.079 199.719 344.05 198.499C355.022 197.279 373.787 169.267 374.752 161.975C376.091 151.89 372.776 144.341 367.212 146.29Z" fill="#F09959"/>
<path d="M361.522 244.024C360.834 244.024 360.132 244.016 359.41 243.998C350.405 243.776 344.275 242.53 339.351 241.527C333.6 240.358 330.432 239.714 326.746 241.476C325.33 242.152 323.636 241.553 322.958 240.137C322.283 238.722 322.881 237.025 324.297 236.349C329.699 233.764 334.223 234.684 340.481 235.957C345.188 236.915 351.046 238.107 359.55 238.316C369.068 238.553 374.87 237.14 377.811 233.876C380.432 230.967 381.199 226.081 380.225 218.499C379.892 215.902 379.558 213.744 379.264 211.84C378.434 206.467 377.884 202.916 378.564 197.429C379.195 192.334 380.88 185.548 384.787 172.385C385.234 170.881 386.812 170.024 388.317 170.471C389.82 170.918 390.678 172.499 390.232 174.003C382.953 198.53 383.323 200.917 384.877 210.972C385.177 212.91 385.516 215.107 385.858 217.774C387.059 227.124 385.844 233.452 382.03 237.682C378.103 242.041 371.729 244.024 361.522 244.024Z" fill="#2E5B9A"/>
<path d="M260.558 294.993C248.91 300.693 242.639 303.962 238.905 303.649C238.024 303.576 237.294 303.487 236.681 303.389C232.527 305.848 225.895 308.75 233.357 309.303C242.134 309.954 246.36 306.375 251.886 304.749C257.413 303.123 264.24 302.147 261.639 297.916C261.14 297.106 260.779 296.112 260.558 294.993Z" fill="#D54A41"/>
<path d="M349.709 284.849C349.423 294.078 348.155 303.223 342.516 304.95C341.021 305.409 339.658 305.474 338.453 305.314C337.564 306.412 336.483 306.424 335.028 308.038C332.835 310.478 347.464 308.771 349.17 308.038C350.876 307.307 351.608 292.912 353.436 289.252C354.939 286.246 351.916 285.546 349.709 284.849Z" fill="#D54A41"/>
<path d="M304.841 197.511H267.838C266.733 197.511 265.728 196.869 265.262 195.866L250.309 163.66C249.648 162.237 250.265 160.548 251.687 159.887C253.111 159.225 254.798 159.842 255.46 161.265L269.65 191.827H304.841C306.411 191.827 307.681 193.099 307.681 194.669C307.681 196.24 306.411 197.511 304.841 197.511Z" fill="#75A1DE"/>
<path d="M312.584 186.333C305.107 186.226 297.691 181.766 294.007 182.416C290.323 183.067 278.295 191.417 279.813 191.741C281.328 192.066 290.864 187.121 291.189 187.046C291.516 186.971 293.575 190.471 298.666 191.758C303.76 193.043 298.703 187.937 314.489 192.71C324.756 195.811 312.584 186.333 312.584 186.333Z" fill="#F09959"/>
<path d="M373.652 134.378L374.752 143.237C374.752 143.237 365.078 143.813 360.262 146.523C355.448 149.233 348.342 157.067 348.342 157.067L354.148 147.065L354.984 140.667L373.652 134.378Z" fill="#F2E5DE"/>
<path d="M369.534 145.222C362.349 143.874 359.024 150.319 354.365 160.837C349.705 171.356 341.751 184.131 340.169 185.777C338.588 187.426 313.511 185.777 313.511 185.777C313.511 185.777 312.753 193.043 313.511 193.911C314.27 194.778 318.605 194.669 318.605 194.669C318.605 194.669 320.339 196.055 321.964 197.151C323.589 198.248 337.351 200.308 343.745 199.983C350.139 199.658 355.99 199.116 356.856 198.14C357.724 197.163 375.17 170.27 376.253 160.619C377.336 150.969 373.202 145.91 369.534 145.222Z" fill="#F2E5DE"/>
<path d="M348.342 100.98C334.75 101.63 336.882 122.092 336.882 122.092C336.882 122.092 340.412 123.182 347.808 121.962C347.24 119.766 347.484 114.155 347.484 114.155C347.484 114.155 348.342 118.708 349.433 121.473C350.997 122.191 352.766 121.556 355.772 120.827C357.318 127.329 361.682 130.076 364.668 131.016C367.97 132.055 371.464 133.294 375.364 131.341C379.265 129.39 377.121 109.437 375.048 105.426C371.94 99.4027 366.771 94.011 357.831 96.8591C353.348 98.2862 348.342 100.98 348.342 100.98Z" fill="#303C60"/>
<path d="M371.979 125.279L377.535 133.401C377.535 133.401 371.376 148.801 389.289 155.776C403.316 161.241 401.663 170.867 395.326 180.548C388.986 190.229 399.117 198.684 399.117 198.684C399.117 198.684 400.663 187.959 414.293 185.936C432.876 183.175 438.139 158.208 424.257 145.721C412.771 135.391 409.276 143.947 401.501 134.676C393.727 125.405 379.048 131.668 379.048 131.668L373.669 123.815L371.979 125.279Z" fill="#303C60"/>
<path d="M430.651 170.875C430.57 170.875 430.489 170.855 430.414 170.814C430.174 170.682 430.087 170.382 430.217 170.142C434.891 161.596 431.077 151.243 429.16 148.437C428.955 148.141 428.763 147.841 428.56 147.52C426.675 144.578 424.33 140.914 411.816 138.661C408.803 138.117 406.363 136.324 403.781 134.426C398.443 130.506 392.396 126.065 379.255 132.116C379.008 132.23 378.714 132.122 378.6 131.875C378.486 131.625 378.594 131.333 378.841 131.217C392.51 124.922 398.809 129.548 404.365 133.631C406.854 135.458 409.203 137.185 411.992 137.686C424.929 140.017 427.403 143.882 429.391 146.988C429.592 147.299 429.781 147.595 429.976 147.879C431.984 150.819 435.978 161.665 431.085 170.617C430.994 170.782 430.826 170.875 430.651 170.875Z" fill="#303C60"/>
<path d="M369.011 133.602C368.123 133.602 367.159 133.525 366.124 133.371C361.369 132.656 354.99 129.952 354.491 114.768C354.48 114.494 354.695 114.266 354.967 114.256C355.245 114.252 355.468 114.461 355.479 114.735C355.683 120.994 356.925 125.626 359.166 128.499C360.868 130.683 363.126 131.921 366.27 132.392C370.672 133.052 373.59 132.238 374.941 129.974C375.081 129.741 375.385 129.664 375.618 129.804C375.851 129.944 375.928 130.249 375.789 130.482C374.549 132.559 372.275 133.602 369.011 133.602Z" fill="#303C60"/>
<path d="M184.156 309.382H187.807L202.013 200.716H193.98L184.156 309.382Z" fill="#2E5B9A"/>
<path d="M308.071 309.382H304.42L290.213 200.716H298.249L308.071 309.382Z" fill="#2E5B9A"/>
<path d="M451.28 217.656C457.597 223.43 454.85 229.201 450.18 239.923C445.511 250.644 444.687 290.227 444.687 290.227L448.533 289.677C448.533 289.677 447.983 248.993 453.203 237.999C458.42 227.002 460.619 221.505 465.289 225.078C469.959 228.653 451.28 217.656 451.28 217.656Z" fill="#74B570"/>
<path d="M447.809 210.182C448.576 206.761 453.132 203.059 459.226 199.92C458.319 204.965 455.414 213.215 458.42 214.908C462.475 217.189 458.816 205.671 460.38 199.34C466.102 196.544 472.985 194.259 479.323 193.122C479.315 193.146 479.306 193.166 479.298 193.191C475.726 202.263 471.056 205.836 472.979 207.21C474.426 208.245 479.138 197.766 485.36 192.395C490.031 192.145 493.981 192.779 496.32 194.63C499.933 197.492 502.357 200.032 498.724 208.747C496.649 210.233 493.959 211.296 490.835 211.609C482.595 212.433 478.749 212.709 484.518 215.458C487.342 216.804 492.076 215.381 495.916 214.516C494.671 216.812 493.139 219.41 491.279 222.372C490.1 224.248 488.8 225.88 487.419 227.289C484.763 227.798 482.447 227.804 481.221 227.279C477.375 225.628 467.486 220.405 465.013 222.603C462.595 224.757 483.329 226.119 481.891 231.59C471.841 237.384 460.341 234.627 458.309 229.306C455.578 222.161 445.498 220.48 447.809 210.182Z" fill="#9CD499"/>
<path d="M468.586 249.27C457.597 241.022 446.334 248.719 440.567 257.515C434.798 266.311 438.918 286.104 438.918 286.104C438.918 286.104 441.115 286.104 441.115 285.28C441.115 284.456 435.071 261.914 449.357 251.742C458.293 245.38 464.739 248.443 465.563 251.468C466.387 254.491 461.993 259.99 461.993 259.99L468.586 249.27Z" fill="#74B570"/>
<path d="M443.313 232.317C454.3 232.317 457.873 249.361 454.85 259.257C451.827 269.151 447.707 287.57 447.707 287.57L444.961 284.821C444.961 284.821 455.4 258.981 452.927 247.436C450.454 235.89 444.411 233.965 443.313 233.965C442.214 233.965 443.313 232.317 443.313 232.317Z" fill="#9CD499"/>
<path d="M452.529 259.332C453.302 258.309 454.256 257.463 455.42 256.9C455.268 257.72 455.079 258.508 454.85 259.257C453.473 263.766 451.868 270.042 450.529 275.542C450.407 274.837 450.221 273.751 449.931 272.079C449.862 271.683 449.809 271.252 449.771 270.798C450.848 267.136 451.864 263.147 452.529 259.332Z" fill="#74B570"/>
<path d="M455.534 259.415C476.409 250.619 465.411 238.547 483.816 246.519C485.112 247.081 486.692 248.498 488.272 250.449C486.633 250.914 484.649 251.249 482.442 250.918C476.947 250.094 478.87 254.491 487.936 255.591C489.644 255.798 491.031 256.084 492.184 256.488C496.502 264.789 498.448 275.71 489.309 279.506C487.508 280.255 485.282 280.682 482.804 280.842C479.984 278.599 483.493 265.619 479.146 267.412C474.971 269.131 480.452 278.538 479.702 280.907C475.582 280.832 471.02 280.16 466.66 279.078C464.936 278.112 463.619 276.814 463.214 275.107C461.84 269.336 470.904 265.761 471.18 260.814C471.431 256.265 467.857 270.822 458.386 272.964C449.821 268.96 445.774 263.528 455.534 259.415Z" fill="#9CD499"/>
<path d="M440.658 243.862C442.855 239.189 437.086 238.09 437.362 241.663C437.605 244.83 437.631 252.528 434.386 254.623C428.789 254.016 421.174 251.758 415.419 248.319C415.346 247.855 415.415 247.376 415.66 246.886C418.133 241.937 434.065 237.814 429.12 236.166C425.182 234.852 418.281 242.605 412.721 246.511C409.382 243.975 407.144 240.953 407.144 237.579C407.144 233.011 412.69 227.843 419.861 225.37C423.089 225.697 426.085 227.463 430.769 230.118C437.686 234.04 436.086 227.699 429.546 223.935C435.191 224.227 440.82 226.641 444.973 232.408C444.973 232.408 444.579 234.873 447.186 238.687C454.3 249.089 446.091 255.163 436.278 254.767C436.834 252.026 439.139 247.091 440.658 243.862Z" fill="#9CD499"/>
<path d="M467.924 248.803C473.296 252.956 479.264 257.814 486.589 261.112C493.914 264.411 492.45 275.162 492.45 275.162C492.45 275.162 493.547 265.877 487.443 262.7C481.339 259.523 477.31 255.737 472.671 255.002C468.03 254.269 465.468 253.537 465.468 253.537C465.468 253.537 466.932 250.605 466.076 249.505C465.222 248.405 467.924 248.803 467.924 248.803Z" fill="#74B570"/>
<path d="M494.403 200.022C474.746 205.275 460.339 217.861 457.654 220.914C454.968 223.97 454.968 224.824 454.968 224.824L457.043 228.734L458.019 228.247C458.019 228.247 456.432 224.946 460.583 220.671C467.742 213.296 476.454 207.476 482.439 204.91C488.421 202.344 494.403 200.022 494.403 200.022Z" fill="#74B570"/>
<path d="M440.143 308.905H447.653C452.994 308.905 457.323 304.573 457.323 299.228V281.961H430.473V299.228C430.473 304.573 434.804 308.905 440.143 308.905Z" fill="#75A1DE"/>
<path d="M457.323 286.94H430.473V285.048H457.323V286.94Z" fill="white"/>
<path d="M457.323 289.61H430.473V288.497H457.323V289.61Z" fill="white"/>
</svg>
