<svg width="579" height="322" viewBox="0 0 579 322" fill="none" xmlns="http://www.w3.org/2000/svg">
<path d="M35.887 321.743C35.887 321.743 -35.2237 306.402 23.8609 289.794C76.2849 275.058 116.873 254.18 116.873 254.18C116.873 254.18 256.414 282.359 303.283 267.365C367.198 246.916 583.396 257.539 543 289C523.452 304.225 607.85 306.557 567.573 321.775L35.887 321.743Z" fill="#B6D1E3"/>
<path d="M58.8094 282.61C58.8094 282.61 -3.7355 215.386 48.232 142.606C94.3411 78.0322 148.099 82.4449 187.541 108.651C204.341 119.812 252.772 110.026 293.996 44.319C350.212 -45.2894 545.077 9.05737 509.546 146.921C492.353 213.637 561.875 216.062 526.45 282.752L58.8094 282.61Z" fill="#DAEEFC"/>
<path d="M376.758 250.83C376.758 250.83 381.803 244.936 377.068 241.191C377.068 241.191 373.609 239.095 370.788 239.267C370.788 239.267 374.785 245.975 373.493 246.641C372.2 247.308 369.577 238.844 369.577 238.844C369.577 238.844 361.706 238.082 359.174 239.298C359.174 239.298 365.903 244.811 364.485 245.141C363.067 245.468 355.8 240.057 355.8 240.057C355.8 240.057 348.473 241.305 348.864 245.779C349.254 250.253 351.778 251.634 352.888 251.516C353.998 251.398 360.488 248.918 360.63 249.826C360.771 250.737 356.863 253.711 354.128 253.85C354.128 253.85 359.294 259.554 362.727 257.908C366.158 256.26 366.452 253.652 368.591 252.674C370.733 251.696 372.558 251.698 371.674 252.697C370.792 253.694 366.92 254.664 365.696 256.831C364.472 258.998 363.373 260.46 366.924 259.923C370.478 259.389 376.251 256.789 376.504 253.808C376.758 250.83 376.758 250.83 376.758 250.83Z" fill="#599DAD"/>
<path d="M352.464 245.899C352.464 245.899 372.362 245.133 376.758 250.83C376.758 250.83 377.728 253.743 380.721 256.398L381.187 257.667C381.187 257.667 377.737 254.03 376.504 253.808C376.504 253.808 378.433 246.751 352.464 245.899Z" fill="#599DAD"/>
<path d="M380.72 256.398C380.72 256.398 384.991 259.558 385.287 265.208L384.512 265.278C384.512 265.278 383.147 259.435 380.682 257.152C378.216 254.866 380.72 256.398 380.72 256.398Z" fill="#599DAD"/>
<path d="M394.403 243.417C394.403 243.417 386.373 238.916 390.121 232.809C390.121 232.809 393.118 229.058 396.329 228.094C396.329 228.094 394.616 237.203 396.329 237.416C398.043 237.632 397.507 227.129 397.507 227.129C397.507 227.129 405.964 223.058 409.281 223.379C409.281 223.379 404.037 232.273 405.749 232.059C407.462 231.844 413.35 222.843 413.35 222.843C413.35 222.843 422.02 221.235 423.411 226.379C424.803 231.523 422.554 234.095 421.271 234.417C419.986 234.738 411.744 234.63 411.957 235.701C412.172 236.774 417.739 238.487 420.843 237.524C420.843 237.524 417.418 245.988 412.921 245.559C408.424 245.133 407.034 242.346 404.251 242.131C401.467 241.918 399.433 242.667 400.826 243.417C402.216 244.167 406.926 243.662 409.176 245.576C411.423 247.49 413.242 248.669 409.068 249.524C404.892 250.382 397.399 249.847 395.901 246.632C394.403 243.417 394.403 243.417 394.403 243.417Z" fill="#6BB7BF"/>
<path d="M419.45 227.987C419.45 227.987 396.973 235.274 394.403 243.417C394.403 243.417 394.51 247.061 392.263 251.239V252.847C392.263 252.847 394.616 247.382 395.901 246.632C395.901 246.632 390.87 239.56 419.45 227.987Z" fill="#6BB7BF"/>
<path d="M392.263 251.239C392.263 251.239 388.796 256.51 390.771 262.925L391.664 262.684C391.664 262.684 390.799 255.618 392.611 252.065C394.426 248.512 392.263 251.239 392.263 251.239Z" fill="#6BB7BF"/>
<path d="M381.63 237.211C381.63 237.211 392.212 231.278 387.275 223.225C387.275 223.225 383.324 218.282 379.091 217.011C379.091 217.011 381.347 229.017 379.091 229.3C376.834 229.583 377.538 215.739 377.538 215.739C377.538 215.739 366.391 210.372 362.016 210.796C362.016 210.796 368.931 222.52 366.673 222.237C364.415 221.956 356.654 210.091 356.654 210.091C356.654 210.091 345.226 207.972 343.392 214.75C341.556 221.531 344.521 224.921 346.213 225.346C347.906 225.769 358.771 225.627 358.49 227.04C358.207 228.453 350.87 230.714 346.777 229.442C346.777 229.442 351.292 240.599 357.22 240.035C363.145 239.469 364.981 235.798 368.648 235.515C372.318 235.232 374.998 236.223 373.164 237.211C371.33 238.2 365.122 237.534 362.158 240.057C359.195 242.579 356.796 244.131 362.299 245.261C367.802 246.391 377.68 245.686 379.655 241.449C381.63 237.211 381.63 237.211 381.63 237.211Z" fill="#86D1CD"/>
<path d="M348.613 216.869C348.613 216.869 378.243 226.474 381.63 237.211C381.63 237.211 381.489 242.013 384.453 247.522V249.64C384.453 249.64 381.347 242.437 379.655 241.449C379.655 241.449 386.287 232.125 348.613 216.869Z" fill="#6BB7BF"/>
<path d="M384.453 247.522C384.453 247.522 389.022 254.469 386.418 262.925L385.24 262.608C385.24 262.608 386.382 253.295 383.991 248.609C381.6 243.926 384.453 247.522 384.453 247.522Z" fill="#6BB7BF"/>
<path d="M382.197 281.262C393.645 281.262 402.927 271.97 402.927 260.508H361.468C361.468 271.97 370.748 281.262 382.197 281.262Z" fill="#EE9849"/>
<path d="M387.298 281.102C386.456 281.207 385.595 281.262 384.723 281.262C373.274 281.262 363.993 271.97 363.993 260.508H369.144C369.144 271.098 377.064 279.832 387.298 281.102Z" fill="#F3B175"/>
<path d="M403.212 282.316H361.181C361.181 280.903 362.326 279.756 363.738 279.756H400.655C402.069 279.756 403.212 280.903 403.212 282.316Z" fill="#EE9849"/>
<path d="M403.398 261.146H360.786V260.508H403.398V261.146Z" fill="#EE9849"/>
<path d="M98.5331 79.625C98.4743 79.3018 97.7142 75.8312 92.3532 76.4226C92.3532 76.4226 95.0217 76.355 95.6425 77.445C95.6425 77.445 93.6492 76.2769 92.2612 76.9465C90.8731 77.6182 90.3887 80.2925 90.5018 81.1332C90.6149 81.9739 91.8153 84.5615 92.7719 84.6566C93.1342 84.6925 93.5336 84.6122 93.89 84.496C93.7003 84.9143 93.5207 85.3748 93.3591 85.8796C91.8649 90.5648 94.6798 94.5192 96.4135 93.7862C97.5256 93.3151 98.1388 95.2416 98.1388 95.2416L108.048 84.5108C108.048 84.5108 102.685 76.5663 98.5331 79.625Z" fill="#2C3A64"/>
<path d="M111.443 208.874L109.032 209.772C109.032 209.772 98.5644 195.239 97.2757 182.45C97.0453 180.169 97.1221 177.955 97.6201 175.913C97.6201 175.913 97.5178 175.327 97.3386 174.295C97.2557 173.811 97.1538 173.23 97.0375 172.565C96.6971 170.613 96.2287 167.943 95.6936 164.901C94.4619 157.903 92.8664 148.956 91.6267 142.38L92.276 142.171L99.3023 139.902L100.754 135.285L105.986 133.906C105.986 133.906 107.155 136.195 108.2 147.006C108.393 148.425 108.568 149.988 108.7 151.684C109.107 156.861 109.136 163.283 108.202 170.623C107.962 172.501 107.659 174.442 107.283 176.436C107.007 177.896 106.966 179.888 107.082 182.176C107.609 192.628 111.443 208.874 111.443 208.874Z" fill="#2B478B"/>
<path d="M108.7 151.684L97.3386 174.295C97.2557 173.811 97.1538 173.23 97.0375 172.565C96.6972 170.613 96.2287 167.943 95.6936 164.901C94.4619 157.903 92.8664 148.956 91.6267 142.38L92.276 142.171L99.3023 139.902L100.754 135.285L105.986 133.906C105.986 133.906 107.155 136.195 108.2 147.006C108.393 148.425 108.568 149.989 108.7 151.684Z" fill="#233862"/>
<path d="M103.702 136.808L103.439 134.55C99.0324 135.722 87.2595 131.276 87.2595 131.276C87.2595 131.276 82.9912 135.032 83.5516 144.036C83.8251 148.431 84.3248 167.104 84.8466 172.63C85.0353 174.633 85.2003 176.058 85.2678 176.629C85.2695 176.631 85.2695 176.633 85.2695 176.633C85.2899 176.806 85.2294 176.971 85.1412 177.123C84.3729 178.428 83.7367 179.787 83.2148 181.179C78.0927 194.841 84.004 211.669 84.004 211.669L85.5377 211.05C85.5377 211.05 88.9014 192.324 91.6351 184.052C92.0989 182.647 92.5435 181.544 92.9512 180.885C94.1394 178.965 95.2424 175.828 96.2434 172.098C98.1354 165.042 99.6583 155.865 100.672 148.782C100.811 148.788 103.702 136.808 103.702 136.808Z" fill="#2B478B"/>
<path d="M105.138 118.267C105.174 118.386 105.207 118.503 105.259 118.623C106.98 123.479 110.047 128.578 112.139 130.439C113.512 131.669 117.284 132.945 120.494 133.858C122.623 134.483 124.525 134.937 125.304 135.133C125.552 135.197 125.696 135.222 125.696 135.222L126.411 133.107C126.411 133.107 124.745 132.064 122.712 130.696C119.889 128.776 116.36 126.247 115.683 125.161C114.119 122.634 113.082 114.913 111.74 109.701C111.674 109.42 111.605 109.147 111.536 108.879C111.485 108.683 111.433 108.49 111.381 108.298C111.369 108.26 111.361 108.203 111.332 108.161C111.259 107.943 111.203 107.747 111.142 107.569C111.145 107.552 111.13 107.531 111.116 107.51C110.845 106.644 110.211 105.434 110.211 105.434C109.819 104.828 109.392 104.525 108.928 104.629C108.928 104.629 108.3 104.819 107.49 105.377C107.32 105.493 107.143 105.626 106.961 105.776C106.838 105.846 106.746 105.941 106.655 106.038C106.015 106.608 105.354 107.398 104.848 108.457C104.463 109.259 104.162 110.206 104.012 111.348C103.751 113.211 104.249 115.695 105.138 118.267Z" fill="#FFB27D"/>
<path d="M107.527 109.407C106.25 110.239 104.66 110.913 102.676 111.312C95.2386 112.814 92.5829 106.481 91.6401 102.162C92.6642 101.613 93.6159 101.511 94.1653 101.46C94.7013 101.414 95.2641 101.386 95.73 101.378C96.5772 100.765 97.887 98.1968 98.2742 94.1601L98.6192 94.2636L104.398 96.0232C104.398 96.0232 104.079 97.8694 103.899 99.6184C103.759 100.985 103.706 102.295 103.956 102.622C104.408 102.734 104.679 102.806 104.679 102.806C104.679 102.806 104.68 102.808 104.682 102.812C104.757 102.941 106.367 105.772 107.527 109.407Z" fill="#FFB27D"/>
<path d="M104.398 96.0253C104.398 96.0253 104.078 97.8694 103.899 99.6185C100.609 99.1939 99.1666 96.0063 98.6193 94.2657L104.398 96.0253Z" fill="#ED985F"/>
<path d="M105.334 97.7934C105.334 97.7934 97.5155 97.1385 97.9968 92.2717C98.4783 87.4027 97.7934 84.0398 102.806 84.251C107.818 84.4623 108.603 86.4162 108.837 88.0807C109.071 89.7453 107.38 97.8377 105.334 97.7934Z" fill="#FFB27D"/>
<path d="M111.536 108.879C111.485 108.683 111.433 108.49 111.381 108.298C111.369 108.26 111.361 108.203 111.332 108.161C111.259 107.943 111.203 107.747 111.142 107.569C111.145 107.552 111.13 107.531 111.116 107.51C110.845 106.644 110.211 105.434 110.211 105.434C109.927 104.994 109.641 104.608 109.329 104.466C109.084 104.312 107.725 103.52 104.679 102.806C104.679 102.806 104.679 102.808 104.682 102.812C104.76 102.992 106.842 107.743 106.497 108.871C106.146 110.018 96.0615 107.943 95.423 107.227C94.9121 106.653 94.4135 103.296 94.2356 101.986C94.1902 101.661 94.1653 101.46 94.1653 101.46C94.1653 101.46 90.5182 101.496 88.6245 102.603C88.6245 102.603 89.6693 104.215 90.2377 106.076C90.2911 106.253 90.3409 106.433 90.3848 106.61C90.4793 106.988 90.5464 107.371 90.5796 107.749C90.6222 108.247 90.4306 108.723 90.086 109.211C89.7727 109.658 89.3266 110.119 88.8182 110.617C88.4857 110.941 88.1272 111.281 87.7587 111.646C87.7585 111.646 87.7585 111.648 87.7585 111.648C88.0487 113.896 88.7416 117.56 88.8972 121.555C88.9364 122.568 88.744 123.571 88.3449 124.493C88.1873 124.86 87.9961 125.215 87.7748 125.551C86.0059 128.231 82.9451 133.504 84.1954 136.327C84.6583 139.095 108.575 139.343 107.633 136.367C107.633 136.367 108.689 118.9 109.994 114.532C110.04 114.371 110.081 114.215 110.116 114.059C110.48 112.396 110.163 110.791 109.757 109.363C110.385 109.101 111.061 108.957 111.536 108.879Z" fill="#FF9843"/>
<path d="M108.876 85.3515C107.815 83.7651 106.872 83.9954 106.317 84.3841C102.285 81.6084 99.1884 84.8044 99.1884 84.8044C98.3171 88.2455 95.601 89.9945 95.601 89.9945C95.601 89.9945 96.9358 91.0169 100.3 90.5015C101.328 90.343 102.294 89.7199 103.14 88.932C101.59 91.0253 99.6233 92.449 99.6233 92.449C103.722 91.0295 105.841 85.7318 106.055 85.1699C106.489 85.6473 107.336 86.6717 107.531 87.6117C107.796 88.8918 107.716 91.4605 108.467 91.4478C108.467 91.4478 110.466 87.7279 108.876 85.3515Z" fill="#2C3A64"/>
<path d="M100.509 131.585C95.8891 132.206 91.2877 127.979 88.345 124.493C88.744 123.571 88.9364 122.568 88.8972 121.555C88.7417 117.56 88.0487 113.896 87.7585 111.648C87.7585 111.648 87.7585 111.646 87.7588 111.646C88.1272 111.281 88.4857 110.941 88.8182 110.617C89.3266 110.119 89.7727 109.658 90.086 109.211C94.7901 115.054 106.773 130.742 100.509 131.585Z" fill="#ED7D2B"/>
<path d="M132.968 136.194C131.93 136.495 130.369 137.784 128.249 136.64C126.731 135.833 125.099 135.201 124.304 134.903C123.987 134.803 123.807 134.735 123.807 134.735L124.991 132.273C124.991 132.273 125.02 132.292 125.095 132.317C125.652 132.508 128.482 133.469 129.878 133.321C131.448 133.146 133.795 135.289 133.795 135.289C133.795 135.289 134.004 135.909 132.968 136.194Z" fill="#FFB27D"/>
<path d="M92.9219 212.923H80.7836C80.7836 212.923 80.4926 211.071 81.1267 209.666C81.7342 208.318 82.6856 207.706 82.4577 206.075C83.2292 206.869 84.4862 207.761 86.241 207.524C86.4562 207.873 87.6291 209.74 88.3473 210.258C89.1405 210.828 92.6776 210.623 92.9219 212.923Z" fill="#233862"/>
<path d="M118.985 212.923H106.846C106.846 212.923 106.392 210.986 107.189 209.666C107.895 208.5 107.624 207.835 107.102 206.869C107.652 207.095 108.363 207.3 109.147 207.256C109.751 207.22 110.391 206.945 110.952 206.62C111.474 207.216 113.711 209.755 114.41 210.258C115.203 210.828 118.74 210.623 118.985 212.923Z" fill="#233862"/>
<path d="M103.47 94.9775C103.47 94.9775 103.579 95.6218 105.163 95.6239C105.163 95.6239 106.493 95.6239 106.496 94.9247C106.496 94.9247 105.243 94.346 103.47 94.9775Z" fill="white"/>
<path d="M116.527 133.178C116.527 133.178 117.568 133.139 118.321 132.737C119.074 132.334 121.534 132.981 121.296 133.308C121.058 133.635 119.68 133.233 119.551 133.418C119.423 133.604 118.919 133.84 118.919 133.84L116.527 133.178Z" fill="#FFB27D"/>
<path d="M179.081 171.012H131.045C124.151 171.012 118.562 165.418 118.562 158.517V110.429C118.562 103.528 124.151 97.9349 131.045 97.9349H179.081C185.974 97.9349 191.563 103.528 191.563 110.429V158.517C191.563 165.418 185.974 171.012 179.081 171.012Z" fill="#C1D7F0"/>
<path d="M182.109 115.922V151.606C182.109 152.666 181.931 153.685 181.604 154.634C180.481 157.888 177.602 160.319 174.101 160.794C173.691 160.85 173.271 160.879 172.846 160.879H137.199C133.182 160.879 129.764 158.32 128.48 154.743C128.128 153.763 127.937 152.706 127.937 151.606V115.922C127.937 110.801 132.083 106.65 137.199 106.65H172.846C177.961 106.65 182.109 110.801 182.109 115.922Z" fill="#D2E4FF"/>
<path d="M150.368 131.247C150.368 131.247 150.187 136.833 149.473 139.336L143.82 143.283L165.099 146.471L160.024 139.452C160.024 139.452 158.492 131.962 159.296 129.192C160.099 126.421 150.368 131.247 150.368 131.247Z" fill="#FFB27D"/>
<path d="M150.337 132.019C150.337 132.017 152.019 136.074 155.189 135.984C158.358 135.895 159.079 132.307 159.079 132.307L150.337 132.019Z" fill="#ED985F"/>
<path d="M148.445 128.736C148.445 128.736 147.421 123.621 146.707 122.072C145.993 120.522 145.397 113.611 153.314 113.254C153.314 113.254 156.349 113.611 158.016 112.597C158.016 112.597 158.016 113.611 157.599 113.968C157.599 113.968 160.337 113.313 162.48 115.696C164.623 118.079 161.052 126.421 161.23 128.387L148.445 128.736Z" fill="#B64C41"/>
<path d="M154.825 134.417C152.529 134.377 148.302 131.316 148.302 127.525V121.609C148.302 120.225 149.266 119.092 150.445 119.092H159.206C160.385 119.092 161.349 120.225 161.349 121.609V127.19C161.349 131.165 157.459 134.464 154.825 134.417Z" fill="#FFB27D"/>
<path d="M148.302 124.768C148.302 124.768 148.314 121.213 151.126 120.666C153.938 120.12 160.233 122.399 161.126 119.807C162.018 117.215 148.959 117.26 148.302 118.914C147.644 120.567 148.302 124.768 148.302 124.768Z" fill="#B64C41"/>
<path d="M168.173 141.026C168.169 141.024 168.168 141.023 168.164 141.023C167.57 140.802 167.258 140.777 167.258 140.777V140.787C164.945 140.204 162.756 139.8 160.714 139.538C160.481 139.507 160.251 139.48 160.024 139.453C158.629 141.309 157.511 142.157 156.337 142.747C156.076 142.878 155.814 142.996 155.544 143.11C155.31 143.208 155.072 143.305 154.826 143.402C154.518 143.359 154.216 143.281 153.922 143.174C153.752 143.113 153.586 143.044 153.422 142.966C151.173 141.903 149.472 139.404 149.472 139.336C149.157 139.368 148.851 139.404 148.556 139.441C145.898 139.773 144.091 140.267 143.309 140.511C143.309 140.511 143.307 140.511 143.306 140.511C143.141 140.531 137.347 141.33 128.48 154.743C129.764 158.32 133.182 160.879 137.199 160.879H172.846C173.271 160.879 173.691 160.85 174.101 160.794C177.602 160.319 180.481 157.888 181.604 154.634C174.887 144.433 170.083 141.733 168.173 141.026Z" fill="#2F5196"/>
<path d="M149.769 137.974C149.769 137.974 148.824 138.368 148.556 139.44C148.556 139.44 152.346 143.343 154.826 143.402L149.769 137.974Z" fill="#EE9849"/>
<path d="M154.826 143.402L159.718 137.777C159.718 137.777 160.728 138.442 160.713 139.537C160.713 139.537 156.929 143.551 154.826 143.402Z" fill="#EE9849"/>
<path d="M157.014 160.879H152.126C152.702 154.309 153.405 147.81 153.742 144.77C153.811 144.153 153.864 143.678 153.9 143.374C153.905 143.324 153.91 143.278 153.915 143.237C153.918 143.215 153.92 143.193 153.922 143.174C153.937 143.053 153.944 142.988 153.944 142.988L154.433 142.979L155.204 142.966H155.205L155.532 142.961C155.532 142.961 155.538 143.012 155.544 143.11C155.549 143.163 155.554 143.23 155.563 143.313C155.568 143.376 155.573 143.449 155.58 143.529C155.61 143.888 155.654 144.409 155.708 145.063C155.974 148.237 156.501 154.558 157.014 160.879Z" fill="#EE9849"/>
<path d="M152.967 141.407C152.967 141.407 155.223 141.18 156.597 141.32C156.87 141.347 157.022 141.646 156.889 141.886C156.504 142.579 155.718 143.782 154.896 143.782C153.742 143.782 151.943 141.486 152.967 141.407Z" fill="#E58638"/>
<path d="M123.663 135.79C123.022 136.66 121.328 137.987 119.143 136.973C117.58 136.259 115.913 135.726 115.102 135.477C114.779 135.395 114.595 135.338 114.595 135.338L115.629 132.81C115.629 132.81 115.659 132.827 115.736 132.847C116.303 133.004 119.109 133.014 120.651 133.84C122.437 134.796 124.417 134.767 123.663 135.79Z" fill="#FFB27D"/>
<path d="M116.628 133.169L116.195 135.552C116.195 135.552 115.383 135.476 114.09 135.35C113.702 135.311 113.479 135.276 113.479 135.276C112.444 135.164 111.203 134.997 109.852 134.821L109.834 134.822C107.514 134.474 104.914 134.04 102.707 133.499C101.153 133.103 99.7962 132.653 98.8568 132.166C98.7608 132.119 98.6842 132.071 98.5869 132.006C96.327 130.645 93.407 126.317 91.0217 121.613C90.6908 120.964 90.3774 120.312 90.067 119.68C88.947 117.321 88.012 114.983 87.3964 112.947C87.0158 111.735 86.7366 110.624 86.6195 109.699C86.5731 109.371 86.5285 109.065 86.5214 108.771C86.5079 108.604 86.4975 108.44 86.4904 108.279C87.4036 107.479 89.5106 105.985 92.3838 106.139C92.4441 106.243 92.503 106.346 92.5629 106.452C93.802 108.708 95.155 111.65 96.4346 114.58C97.1421 116.187 97.8298 117.795 98.5074 119.276C98.8973 120.177 99.282 121.023 99.642 121.798C100.338 123.277 100.954 124.47 101.476 125.212C101.811 125.697 102.708 126.333 103.886 127.038C105.933 128.271 108.896 129.717 111.469 130.886C112.537 131.38 113.546 131.824 114.383 132.191C115.735 132.788 116.628 133.169 116.628 133.169Z" fill="#FFB27D"/>
<path d="M92.5571 106.458C88.9753 105.797 86.5141 108.767 86.5141 108.767C86.1014 103.497 88.6576 102.548 88.6576 102.548C89.6732 102.02 91.0523 103.74 92.5571 106.458Z" fill="#FF9843"/>
<path d="M490.612 184.755H436.46C435.552 184.755 434.81 184.014 434.81 183.105V175.706C434.81 174.797 435.552 174.056 436.46 174.056H490.612C491.519 174.056 492.26 174.797 492.26 175.706V183.105C492.26 184.014 491.519 184.755 490.612 184.755Z" fill="#EE9849"/>
<path d="M448.732 184.755L448.051 191.016L438.171 281.649C438.144 281.966 437.92 282.204 437.654 282.204C437.148 282.204 436.753 281.678 436.806 281.074L444.641 188.262L444.938 184.755H448.732Z" fill="#EFCBAB"/>
<path d="M448.732 184.755L448.051 191.016C447.582 188.521 444.641 188.261 444.641 188.261L444.938 184.755H448.732Z" fill="#CCA07F"/>
<path d="M489.418 282.204C489.152 282.204 488.928 281.966 488.901 281.649L479.021 191.016L478.595 187.11L478.339 184.755H482.133L482.429 188.262L482.663 191.012L490.266 281.074C490.319 281.678 489.924 282.204 489.418 282.204Z" fill="#EFCBAB"/>
<path d="M482.663 191.012C481.697 188.029 478.597 187.112 478.597 187.112C478.597 187.112 478.597 187.112 478.595 187.11L478.339 184.755H482.133L482.429 188.262L482.663 191.012Z" fill="#CCA07F"/>
<path d="M122.426 219.778H67.6148C66.8887 219.778 66.2952 219.184 66.2952 218.458V214.246C66.2952 213.519 66.8887 212.923 67.6148 212.923H122.426C123.152 212.923 123.746 213.519 123.746 214.246V218.458C123.746 219.184 123.152 219.778 122.426 219.778Z" fill="#EE9849"/>
<path d="M80.2173 219.778L79.5349 223.789L69.6553 281.85C69.6276 282.05 69.4048 282.204 69.1387 282.204C68.6316 282.204 68.2366 281.869 68.2904 281.48L76.126 222.023L76.4227 219.778H80.2173Z" fill="#EFCBAB"/>
<path d="M80.2174 219.778L79.535 223.789C79.0663 222.19 76.1261 222.023 76.1261 222.023L76.4228 219.778H80.2174Z" fill="#CCA07F"/>
<path d="M120.902 282.204C120.636 282.204 120.413 282.05 120.386 281.85L110.506 223.789L110.08 221.286L109.824 219.778H113.618L113.915 222.023L114.147 223.787L121.75 281.48C121.804 281.869 121.409 282.204 120.902 282.204Z" fill="#EFCBAB"/>
<path d="M114.147 223.787C113.181 221.875 110.082 221.288 110.082 221.288C110.082 221.288 110.082 221.288 110.08 221.286L109.824 219.778H113.618L113.915 222.023L114.147 223.787Z" fill="#CCA07F"/>
<path d="M205.824 82.5041H157.283C150.316 82.5041 144.669 76.8514 144.669 69.8764V21.2858C144.669 14.3129 150.316 8.65813 157.283 8.65813H205.824C212.79 8.65813 218.436 14.3129 218.436 21.2858V69.8764C218.436 76.8514 212.79 82.5041 205.824 82.5041Z" fill="#C1D7F0"/>
<path d="M208.884 26.835V62.8951C208.884 63.7104 208.778 64.5026 208.584 65.2567C207.822 68.1865 205.683 70.5587 202.898 71.636C202.791 71.6782 202.684 71.7163 202.578 71.7522C201.619 72.0859 200.592 72.2655 199.522 72.2655H163.502C163.027 72.2655 162.56 72.2296 162.104 72.1599C159.188 71.7226 156.711 69.9398 155.327 67.4599C154.572 66.1101 154.142 64.5533 154.142 62.8951V26.835C154.142 21.6597 158.332 17.4645 163.502 17.4645H199.522C204.693 17.4645 208.884 21.6597 208.884 26.835Z" fill="#D2E4FF"/>
<path d="M178.449 40.3519C178.449 40.3519 178.291 45.2611 177.663 47.46L172.695 50.9285L191.394 53.7295L186.935 47.5614C186.935 47.5614 185.589 40.9793 186.295 38.5459C187.001 36.1103 178.449 40.3519 178.449 40.3519Z" fill="#FFB27D"/>
<path d="M178.422 41.03C178.422 41.0279 179.901 44.5936 182.686 44.5154C185.471 44.4352 186.105 41.2835 186.105 41.2835L178.422 41.03Z" fill="#ED985F"/>
<path d="M176.759 38.1446C176.759 38.1446 175.86 33.6495 175.232 32.2891C174.605 30.9266 174.081 24.8536 181.038 24.5389C181.038 24.5389 183.706 24.8536 185.17 23.9622C185.17 23.9622 185.17 24.8536 184.804 25.1662C184.804 25.1662 187.21 24.5917 189.093 26.685C190.976 28.7805 187.838 36.1104 187.995 37.8383L176.759 38.1446Z" fill="#2C3A64"/>
<path d="M188.099 31.8814V36.7863C188.099 37.6059 187.911 38.3938 187.593 39.1184H187.591C187.041 40.3689 186.106 41.4314 185.083 42.1475C184.175 42.7875 183.199 43.153 182.366 43.1382C181.641 43.1234 180.698 42.7685 179.785 42.1623C178.556 41.3469 177.385 40.0795 176.886 38.5881L176.878 38.5649L176.86 38.5037C176.716 38.0453 176.634 37.57 176.634 37.0799V31.8814C176.634 30.6647 177.482 29.6698 178.517 29.6698H186.216C187.251 29.6698 188.099 30.6647 188.099 31.8814Z" fill="#FFB27D"/>
<path d="M193.292 48.738C193.292 48.738 188.901 47.7917 186.935 47.5614C185.199 49.8703 183.953 50.4892 182.368 51.1187C179.814 50.7659 177.663 47.5319 177.663 47.4601C174.885 47.7452 173.01 48.3388 172.246 48.5775C172.246 48.5775 172.244 48.5775 172.243 48.5775C172.065 48.6007 165.265 49.5471 155.327 67.5465C156.711 70.0243 159.188 71.8092 162.104 72.2444C163.385 71.1375 166.135 68.7463 168.291 66.8705C168.268 67.4768 168.263 68.0239 168.276 68.5013C168.313 69.7898 168.354 71.0699 168.383 72.35H195.494C195.442 71.6994 195.4 71.072 195.369 70.4742C195.276 68.609 195.19 66.9043 195.11 65.3496C195.108 65.337 195.108 65.3222 195.106 65.3095C195.106 65.2926 195.105 65.2778 195.104 65.2609C195.106 65.263 195.108 65.263 195.11 65.2651C195.503 65.6052 195.97 66.0129 196.48 66.4565C196.582 66.5431 196.685 66.6339 196.79 66.7248C196.88 66.8029 196.971 66.8832 197.064 66.9635C197.191 67.0733 197.32 67.1853 197.449 67.2993C197.681 67.5 197.916 67.7028 198.153 67.9098C198.262 68.0049 198.372 68.0999 198.48 68.195C198.538 68.2457 198.596 68.2964 198.655 68.3471C198.721 68.4041 198.788 68.4611 198.855 68.5203C198.904 68.5625 198.954 68.6048 199.004 68.6491C199.121 68.7505 199.236 68.8519 199.351 68.9512C199.446 69.0357 199.539 69.116 199.634 69.1984C199.712 69.2659 199.791 69.3335 199.869 69.4011C200.154 69.6504 200.433 69.8933 200.704 70.1278C200.812 70.2207 200.919 70.3158 201.026 70.4066C201.136 70.5038 201.246 70.5988 201.353 70.6897C201.427 70.7552 201.502 70.8206 201.577 70.884C201.61 70.9136 201.643 70.941 201.675 70.9685C201.788 71.0678 201.897 71.165 202.003 71.2537C202.113 71.3508 202.22 71.4438 202.322 71.5325C202.364 71.5705 202.406 71.6043 202.447 71.6402C202.491 71.6804 202.535 71.7163 202.578 71.7522C202.684 71.7163 202.791 71.6782 202.897 71.636C205.683 70.5587 207.822 68.1865 208.584 65.2567C199.276 49.2175 193.292 48.738 193.292 48.738Z" fill="#F99746"/>
<path d="M176.634 34.657C176.634 34.657 176.644 31.535 179.116 31.0533C181.587 30.5738 187.119 32.5764 187.903 30.2992C188.688 28.02 177.211 28.0601 176.634 29.5134C176.056 30.9667 176.634 34.657 176.634 34.657Z" fill="#2C3A64"/>
<path d="M171.596 72.2655H168.383C168.354 70.9833 168.313 69.7053 168.276 68.4168C168.263 67.9394 168.268 67.3923 168.291 66.786C168.296 66.6508 168.302 66.5135 168.308 66.372C168.339 66.4227 168.395 66.5093 168.469 66.6318C168.949 67.4155 170.259 69.6018 171.596 72.2655Z" fill="#ED7D2B"/>
<path d="M185.083 39.9865V42.1474C184.175 42.7875 183.199 43.1529 182.366 43.1381C181.641 43.1233 180.698 42.7685 179.785 42.1622V39.9865C179.785 38.7803 180.771 37.7917 181.977 37.7917H182.89C184.096 37.7917 185.083 38.7803 185.083 39.9865Z" fill="#2C3A64"/>
<path d="M202.897 71.636C202.791 71.6782 202.684 71.7163 202.578 71.7522C202.535 71.7163 202.491 71.6804 202.447 71.6402C202.406 71.6043 202.364 71.5705 202.322 71.5325C202.22 71.4438 202.113 71.3508 202.003 71.2537C201.897 71.1649 201.788 71.0678 201.675 70.9685C201.643 70.941 201.61 70.9136 201.577 70.884C201.502 70.8206 201.427 70.7551 201.353 70.6897C201.246 70.5988 201.136 70.5038 201.026 70.4066C200.919 70.3158 200.812 70.2207 200.704 70.1278C200.433 69.8933 200.154 69.6504 199.869 69.4011C199.791 69.3335 199.712 69.2659 199.634 69.1983C199.539 69.116 199.446 69.0357 199.351 68.9512C199.236 68.8519 199.121 68.7505 199.004 68.6491C198.954 68.6048 198.904 68.5625 198.855 68.5203C198.788 68.4611 198.721 68.4041 198.655 68.347C198.596 68.2963 198.538 68.2457 198.48 68.195C198.372 68.0999 198.262 68.0049 198.153 67.9098C197.916 67.7028 197.681 67.5 197.449 67.2993C197.32 67.1853 197.191 67.0733 197.064 66.9634C196.971 66.8832 196.88 66.8029 196.79 66.7248C196.685 66.6339 196.582 66.5431 196.48 66.4565C195.97 66.0129 195.503 65.6052 195.11 65.2651C195.1 65.2567 195.091 65.2503 195.083 65.2419C195.083 65.2419 195.091 65.2355 195.106 65.225C195.364 65.0433 197.708 63.4928 199.188 66.1122C200.232 67.9563 201.897 70.282 202.897 71.636Z" fill="#ED7D2B"/>
<path d="M187.591 39.1183C186.556 41.4779 184.139 43.1677 182.366 43.1382C180.664 43.1065 177.754 41.1863 176.886 38.5881L176.878 38.5649L176.86 38.5036C176.86 38.5036 178.689 40.0647 179.898 39.2915H184.979C184.979 39.2915 186.309 40.052 187.591 39.1183Z" fill="#2C3A64"/>
<path d="M182.982 39.7225H181.886C181.634 39.7225 181.315 39.3106 181.315 39.0592C181.315 39.0592 181.634 38.8078 181.886 38.8078H182.982C183.233 38.8078 183.6 39.017 183.659 39.1669C183.659 39.1669 183.507 39.7225 182.982 39.7225Z" fill="#FFB27D"/>
<path d="M294.076 80.998H245.537C238.571 80.998 232.922 75.3453 232.922 68.3703V19.7797C232.922 12.8047 238.571 7.15202 245.537 7.15202H294.076C301.044 7.15202 306.691 12.8047 306.691 19.7797V68.3703C306.691 75.3453 301.044 80.998 294.076 80.998Z" fill="#C1D7F0"/>
<path d="M297.136 25.3288V61.3868C297.136 63.6935 296.305 65.8038 294.925 67.4366C293.209 69.4666 290.643 70.7573 287.777 70.7573H251.755C249.39 70.7573 247.231 69.8806 245.585 68.4315C243.629 66.7142 242.395 64.1963 242.395 61.3868V25.3288C242.395 20.1535 246.585 15.9584 251.755 15.9584H287.777C292.947 15.9584 297.136 20.1535 297.136 25.3288Z" fill="#D2E4FF"/>
<path d="M265.942 49.5111C265.942 49.5111 260.065 49.2154 259.9 45.8208C259.736 42.4263 254.88 39.9506 256.288 37.2256C258.012 33.8839 256.438 30.6689 258.615 28.4234C261.012 25.9456 264.043 27.2912 265.642 25.8485C267.239 24.4057 270.162 23.0771 273.044 24.8578C275.927 26.6406 278.128 25.6816 280.023 27.3989C282.116 29.2937 281.323 31.6807 283.049 32.9777C284.631 34.1648 283.988 37.4115 282.654 40.0499C281.694 41.951 283.907 43.7338 280.105 45.918C278.525 46.8284 278.866 49.1161 274.064 49.5111C271.899 49.6886 267.204 48.6746 265.942 49.5111Z" fill="#2C3A64"/>
<path d="M266.117 46.5011C266.117 46.5011 265.946 51.8052 265.269 54.1816L259.9 57.9289L280.105 60.9559L275.288 54.2914C275.288 54.2914 273.832 47.1791 274.595 44.5492C275.359 41.9172 266.117 46.5011 266.117 46.5011Z" fill="#B56F40"/>
<path d="M266.087 47.234C266.087 47.2319 267.687 51.0827 270.696 50.9982C273.705 50.9137 274.391 47.5065 274.391 47.5065L266.087 47.234Z" fill="#99592E"/>
<path d="M270.35 49.5111C268.17 49.4731 264.157 46.5644 264.157 42.9649V37.3481C264.157 36.0343 265.072 34.957 266.191 34.957H274.511C275.629 34.957 276.545 36.0343 276.545 37.3481V42.6481C276.545 46.4229 272.852 49.5555 270.35 49.5111Z" fill="#B56F40"/>
<path d="M282.158 55.6433H282.156C279.71 55.0286 277.41 54.5386 275.287 54.2914C273.409 56.784 272.065 57.4494 270.35 58.1275C267.592 57.7451 265.269 54.2597 265.269 54.1816C262.264 54.4879 260.24 55.1237 259.413 55.3814C259.413 55.3814 259.411 55.3814 259.404 55.3835C259.164 55.4152 253.792 56.2475 245.585 68.5182C247.231 69.9651 249.39 70.8418 251.755 70.8418H255.465H258.461H283.981C283.979 70.8143 283.979 70.7868 283.977 70.7573H287.777C290.643 70.7573 293.209 69.4666 294.924 67.4366C289.157 57.5254 282.158 55.6433 282.158 55.6433Z" fill="#B64C41"/>
<path d="M264.156 39.6253C264.156 39.6253 265.669 35.0014 270.628 35.7217C275.589 36.4441 276.018 37.5045 276.545 38.7339C277.073 39.9654 278.09 34.2367 278.09 34.2367L272.24 32.4961C272.24 32.4961 265.161 33.303 264.652 34.4902C264.144 35.6794 264.144 35.6794 264.144 35.6794L264.156 39.6253Z" fill="#2C3A64"/>
<path d="M276.087 41.3617C275.933 42.1263 275.359 42.6143 274.382 42.8129C273.637 42.9671 272.928 42.8826 272.922 42.8805H272.911C272.186 42.8805 271.671 42.458 271.293 41.5497C271.24 41.4293 271.135 41.1441 271.109 40.8441C271.109 40.842 271.109 40.842 271.109 40.842C271.16 40.861 271.209 40.8843 271.259 40.9117C271.31 40.9371 271.373 40.9181 271.399 40.8674C271.426 40.8167 271.407 40.7554 271.356 40.7279C271.274 40.6836 271.192 40.6519 271.109 40.6223C271.109 40.6202 271.109 40.6202 271.109 40.6202C271.12 40.4787 271.156 40.3435 271.232 40.2294C271.386 39.995 271.688 39.8788 272.127 39.8788H274.758C275.224 39.8788 275.634 40.0499 275.876 40.3477C276.094 40.6118 276.167 40.9645 276.087 41.3617ZM269.594 40.861C269.565 41.1547 269.459 41.4314 269.413 41.5497C269.033 42.458 268.518 42.8805 267.792 42.8805H267.782C267.773 42.8826 267.066 42.9671 266.322 42.8129C265.345 42.6143 264.771 42.1263 264.617 41.3617C264.538 40.9645 264.608 40.6118 264.828 40.3477C265.07 40.0499 265.48 39.8788 265.946 39.8788H268.579C269.018 39.8788 269.318 39.995 269.474 40.2294C269.552 40.3477 269.588 40.4914 269.596 40.6371V40.6392C269.464 40.6815 269.377 40.7195 269.366 40.7258C269.314 40.7491 269.29 40.8103 269.314 40.8631C269.333 40.9012 269.371 40.9223 269.409 40.9223C269.423 40.9223 269.438 40.9202 269.453 40.9139C269.455 40.9117 269.508 40.8885 269.594 40.8589V40.861ZM276.011 40.2379C275.733 39.8978 275.277 39.7056 274.758 39.7056H272.127C271.624 39.7056 271.276 39.8471 271.086 40.1323C270.998 40.2632 270.953 40.4132 270.938 40.5695C270.497 40.4597 270.067 40.5167 269.767 40.5906V40.5885C269.755 40.428 269.708 40.2696 269.618 40.1323C269.43 39.8471 269.079 39.7056 268.579 39.7056H265.946C265.427 39.7056 264.969 39.8978 264.693 40.2379C264.441 40.5442 264.357 40.9455 264.448 41.3955C264.747 42.8868 266.461 43.0769 267.318 43.0769C267.581 43.0769 267.763 43.0579 267.797 43.0537C268.598 43.0516 269.162 42.5953 269.571 41.6151C269.641 41.4462 269.755 41.1335 269.772 40.8061C270.056 40.7301 270.493 40.6604 270.932 40.7829C270.945 41.1187 271.061 41.444 271.131 41.6151C271.542 42.5953 272.105 43.0516 272.907 43.0537C272.941 43.0579 273.122 43.0769 273.386 43.0769C274.243 43.0769 275.956 42.8868 276.256 41.3976C276.347 40.9455 276.262 40.5442 276.011 40.2379Z" fill="#2C3A64"/>
<path d="M393.951 79.2785L345.73 73.7104C338.811 72.9119 333.848 66.6488 334.646 59.7202L340.206 11.4486C341.003 4.52003 347.262 -0.448235 354.181 0.352348L402.402 5.91841C409.323 6.71689 414.286 12.9821 413.489 19.9086L407.928 68.1802C407.129 75.1088 400.872 80.077 393.951 79.2785Z" fill="#C1D7F0"/>
<path d="M403.362 24.3276L399.235 60.149C399.074 61.5495 398.612 62.8401 397.92 63.966V63.9681C396.855 65.7108 395.24 67.0585 393.345 67.8021C392.263 68.2266 391.088 68.4548 389.87 68.4442H389.868C389.537 68.4421 389.203 68.4231 388.863 68.383L373.694 66.6318L370.693 66.2854L360.891 65.1532L359.632 65.0074L353.08 64.2512C349.556 63.8435 346.713 61.5262 345.473 58.4506C345.39 58.25 345.317 58.0493 345.251 57.8444C344.983 57.0269 344.827 56.1651 344.797 55.2779C344.781 54.8153 344.8 54.3442 344.854 53.8689L348.982 18.0497C349.573 12.9082 354.217 9.21999 359.353 9.81356L395.137 13.9432C400.271 14.5368 403.953 19.184 403.362 24.3276Z" fill="#D2E4FF"/>
<path d="M388.207 32.5954C388.203 32.5658 388.199 32.5362 388.192 32.5109C388.076 31.856 387.946 31.2054 387.804 30.5675C387.804 30.5654 387.804 30.5654 387.804 30.5654C388.6 25.4429 386.635 23.2545 384.936 22.1434C384.023 20.3585 383.048 19.0995 382.124 18.6728C380.436 17.8934 378.498 17.9546 377.156 18.149C377.473 17.7603 378.144 17.5723 378.144 17.5723C377.298 17.5174 375.5 18.5059 375.5 18.5059C363.483 14.9994 363.097 32.3102 363.677 36.2751C364.255 40.2421 360.212 41.8919 354.42 45.5441C349.157 48.8626 346.323 52.441 344.797 55.2779C344.827 56.1651 344.983 57.0269 345.251 57.8444C345.441 57.6733 345.631 57.5445 345.819 57.4748C345.808 57.5107 345.665 57.9014 345.473 58.4507C346.713 61.5262 349.556 63.8435 353.08 64.2512L359.632 65.0074L360.891 65.1532L370.693 66.2854C371.723 64.8236 372.845 63.3112 374.01 61.8114C376.846 58.1528 379.946 54.5618 382.643 51.9488C383.533 51.0849 384.377 50.3307 385.156 49.7139C385.183 49.6928 385.213 49.6675 385.24 49.6463C385.618 48.9746 385.924 48.1973 386.169 47.3924C386.998 44.676 387.154 41.6532 387.167 41.3532C387.169 44.1584 386.922 46.1039 386.601 47.4516C386.475 47.986 386.335 48.4275 386.196 48.7908C386.54 48.4169 386.846 47.9945 387.116 47.5298C389.159 44.0253 389.184 38.1467 388.207 32.5954Z" fill="#163560"/>
<path d="M383.343 50.7426C383.381 50.7638 379.387 52.2889 376.644 51.1841C374.063 50.149 372.719 46.4883 372.757 46.4862C373.911 46.3912 374.415 44.8766 375.16 38.2016L375.658 38.36L384.044 41.0511C384.044 41.0511 383.535 43.7317 383.238 46.2771C382.985 48.4148 382.881 50.4575 383.343 50.7426Z" fill="#FFB27D"/>
<path d="M372.675 22.2997C372.675 22.2997 376.54 17.416 382.231 21.2584C382.231 21.2584 379.083 20.9837 372.675 22.2997Z" fill="#BC3F3F"/>
<path d="M384.044 41.0512C384.044 41.0512 383.535 43.7317 383.238 46.2771C378.452 45.5885 376.418 40.9117 375.658 38.36L384.044 41.0512Z" fill="#EF9E67"/>
<path d="M385.388 42.5826C385.388 42.5826 374.01 43.7338 373.402 36.6279C372.797 29.524 370.921 24.8874 378.161 23.8544C385.399 22.8194 387.044 25.4091 387.823 27.7306C388.602 30.0542 388.332 42.101 385.388 42.5826Z" fill="#FFB27D"/>
<path d="M383.335 23.2419C383.335 23.2419 380.917 31.8413 376.232 33.4762C371.55 35.1133 369.364 34.0043 369.364 34.0043C369.364 34.0043 372.79 30.7745 373.124 25.6119C373.124 25.6119 380.646 19.4734 383.335 23.2419Z" fill="#163560"/>
<path d="M382.617 23.9833C382.617 23.9833 385.105 25.6478 385.825 27.4095C386.547 29.1712 387.114 32.8742 388.188 32.6566C388.188 32.6566 390.062 26.7906 387.15 23.8101C384.063 20.6479 382.617 23.9833 382.617 23.9833Z" fill="#163560"/>
<path d="M393.084 50.1829C391.902 48.7 389.486 47.929 387.116 47.5298C386.943 47.5023 386.772 47.477 386.601 47.4516C386.456 47.4305 386.312 47.4093 386.169 47.3924C385.169 47.2615 384.211 47.1939 383.394 47.158C383.272 46.9848 383.198 46.877 383.175 46.8454C383.168 46.839 383.166 46.8348 383.166 46.8348L373.544 46.0553L373.443 46.0469C373.443 46.0469 373.436 46.0469 373.424 46.0448C373.417 46.0448 373.411 46.0427 373.403 46.0427C372.677 45.9666 362.711 44.9759 360.782 48.4951C359.522 50.7955 359.497 55.1976 360.094 60.0814C359.912 61.7396 359.765 63.4253 359.632 65.0074L360.892 65.1532L370.693 66.2854L373.694 66.6318L388.864 68.383C389.203 68.4231 389.537 68.4421 389.868 68.4442H389.87C391.088 68.4548 392.263 68.2266 393.345 67.8021C395.24 67.0585 396.855 65.7108 397.92 63.9681V63.966C396.462 57.9881 394.637 52.1347 393.084 50.1829Z" fill="#BC3F3F"/>
<path d="M400.644 171.259H352.13C345.169 171.259 339.524 165.609 339.524 158.639V110.075C339.524 103.106 345.169 97.4554 352.13 97.4554H400.644C407.606 97.4554 413.25 103.106 413.25 110.075V158.639C413.25 165.609 407.606 171.259 400.644 171.259Z" fill="#C1D7F0"/>
<path d="M403.702 115.622V151.66C403.702 152.561 403.575 153.432 403.339 154.256C402.254 158.024 398.872 160.816 394.806 161.013C394.654 161.022 394.502 161.025 394.348 161.025H358.347C358.281 161.025 358.218 161.025 358.153 161.022C358.093 161.022 358.03 161.02 357.969 161.016C353.888 160.855 350.48 158.076 349.372 154.312C349.123 153.471 348.992 152.581 348.992 151.66V115.622C348.992 110.449 353.181 106.255 358.347 106.255H394.348C399.513 106.255 403.702 110.449 403.702 115.622Z" fill="#D2E4FF"/>
<path d="M370.959 132.319C370.959 132.319 370.752 138.729 369.933 141.6L363.447 146.129L387.861 149.786L382.039 141.733C382.039 141.733 380.281 133.14 381.204 129.961C382.126 126.782 370.959 132.319 370.959 132.319Z" fill="#FFB27D"/>
<path d="M370.925 133.205C370.925 133.202 372.854 137.857 376.492 137.754C380.127 137.652 380.955 133.535 380.955 133.535L370.925 133.205Z" fill="#ED985F"/>
<path d="M368.754 129.438C368.754 129.438 367.579 123.569 366.76 121.791C365.941 120.014 365.257 112.083 374.339 111.674C374.339 111.674 377.823 112.083 379.735 110.922C379.735 110.922 379.735 112.083 379.258 112.493C379.258 112.493 382.398 111.741 384.856 114.477C387.315 117.211 383.219 126.782 383.424 129.038L368.754 129.438Z" fill="#2C3A64"/>
<path d="M376.074 135.957C373.44 135.91 368.589 132.398 368.589 128.048V121.261C368.589 119.673 369.697 118.373 371.048 118.373H381.1C382.453 118.373 383.561 119.673 383.561 121.261V127.664C383.561 132.225 379.096 136.01 376.074 135.957Z" fill="#FFB27D"/>
<path d="M368.589 124.885C368.589 124.885 368.604 120.807 371.83 120.18C375.057 119.553 382.28 122.167 383.303 119.194C384.329 116.22 369.345 116.271 368.589 118.168C367.836 120.065 368.589 124.885 368.589 124.885Z" fill="#2C3A64"/>
<path d="M392.512 161.025H358.347C358.281 161.025 358.218 161.025 358.153 161.022C359.018 153.187 360.873 143.737 362.356 143.115C362.356 143.115 362.525 143.053 362.852 142.951C362.856 142.949 362.86 142.949 362.86 142.949C363.635 142.707 365.279 142.254 367.667 141.888C367.671 141.888 367.68 141.886 367.684 141.886C368.374 141.779 369.123 141.683 369.933 141.599C369.933 141.694 372.742 145.804 376.074 146.265C378.146 145.445 379.773 144.746 382.039 141.733C382.786 141.821 383.552 141.923 384.335 142.045C386.239 142.339 388.245 142.737 390.339 143.266C390.588 143.327 390.837 143.392 391.088 143.459H391.09C391.189 143.483 391.288 143.51 391.387 143.537C391.387 143.537 391.413 143.641 391.472 144.254C391.472 144.254 391.472 144.254 391.472 144.256C391.6 145.648 391.906 149.661 392.512 161.025Z" fill="#739AF0"/>
<path d="M362.626 142.993C362.618 142.995 362.609 142.996 362.601 143C362.472 143.029 362.299 143.075 362.08 143.151C362.067 143.156 362.052 143.159 362.042 143.163C362.031 143.168 362.021 143.171 362.012 143.173C361.999 143.178 361.991 143.18 361.991 143.18C360.189 143.805 355.675 146.098 349.372 154.312C350.48 158.076 353.888 160.855 357.969 161.016C358.03 161.02 358.094 161.022 358.153 161.022C358.218 161.025 358.281 161.025 358.347 161.025H361.744H367.416C367.515 155.238 367.585 150.204 367.629 146.754C367.646 145.23 367.661 144.016 367.671 143.18C367.68 142.342 367.684 141.886 367.684 141.886C367.68 141.886 367.671 141.888 367.667 141.888C365.88 142.101 363.688 142.688 362.626 142.993Z" fill="#2B478B"/>
<path d="M391.387 143.537C390.929 143.366 390.615 143.297 390.459 143.269C390.454 143.269 390.452 143.269 390.452 143.268C389.245 142.963 386.519 142.306 384.335 142.044C384.335 142.044 384.335 142.044 384.335 142.045C384.335 142.095 384.341 143.137 384.356 144.936V144.938C384.367 146.091 384.379 147.556 384.394 149.268C384.426 152.457 384.468 156.508 384.529 161.025H391.007H394.348C394.502 161.025 394.654 161.022 394.806 161.013C398.872 160.816 402.254 158.024 403.339 154.256C397.445 146.53 393.236 144.221 391.387 143.537Z" fill="#2B478B"/>
<path d="M382.522 125.817C382.349 126.675 381.704 127.225 380.606 127.449C379.769 127.62 378.973 127.526 378.965 127.525H378.952C378.137 127.525 377.559 127.048 377.131 126.026C377.076 125.892 376.956 125.571 376.926 125.233C376.926 125.232 376.926 125.232 376.926 125.232C376.983 125.254 377.04 125.28 377.095 125.309C377.152 125.339 377.222 125.318 377.253 125.261C377.283 125.204 377.26 125.133 377.205 125.103C377.112 125.054 377.017 125.016 376.924 124.983C376.924 124.983 376.924 124.982 376.924 124.982C376.937 124.824 376.977 124.673 377.061 124.543C377.236 124.281 377.576 124.148 378.068 124.148H381.028C381.554 124.148 382.012 124.341 382.288 124.676C382.531 124.975 382.613 125.37 382.522 125.817ZM375.221 125.253C375.19 125.584 375.071 125.895 375.019 126.026C374.59 127.048 374.012 127.525 373.198 127.525H373.185C373.177 127.526 372.379 127.62 371.543 127.449C370.444 127.225 369.8 126.675 369.627 125.817C369.537 125.37 369.619 124.975 369.862 124.676C370.136 124.341 370.596 124.148 371.121 124.148H374.08C374.573 124.148 374.913 124.281 375.086 124.543C375.177 124.676 375.217 124.837 375.226 125.002C375.226 125.003 375.226 125.003 375.226 125.004C375.076 125.052 374.979 125.094 374.966 125.1C374.907 125.127 374.882 125.196 374.909 125.255C374.928 125.298 374.97 125.323 375.015 125.323C375.031 125.323 375.048 125.319 375.063 125.313C375.065 125.311 375.124 125.285 375.221 125.252C375.221 125.252 375.221 125.253 375.221 125.253ZM382.438 124.553C382.126 124.171 381.613 123.952 381.028 123.952H378.068C377.507 123.952 377.112 124.115 376.899 124.434C376.802 124.583 376.751 124.751 376.732 124.924C376.732 124.924 376.732 124.925 376.732 124.926C376.236 124.802 375.753 124.865 375.418 124.949V124.948C375.401 124.766 375.352 124.59 375.249 124.434C375.036 124.115 374.643 123.952 374.08 123.952H371.121C370.537 123.952 370.024 124.171 369.712 124.553C369.429 124.899 369.334 125.349 369.435 125.856C369.773 127.53 371.7 127.744 372.662 127.744C372.957 127.744 373.164 127.723 373.202 127.72C374.103 127.718 374.736 127.203 375.198 126.101C375.276 125.914 375.403 125.56 375.422 125.192V125.191C375.74 125.106 376.232 125.029 376.726 125.164V125.164C376.741 125.543 376.871 125.909 376.952 126.101C377.414 127.203 378.047 127.718 378.948 127.72C378.986 127.723 379.19 127.744 379.488 127.744C380.45 127.744 382.377 127.53 382.714 125.856C382.816 125.349 382.721 124.899 382.438 124.553Z" fill="#B64C41"/>
<path d="M282.557 180.135H226.294C218.221 180.135 211.675 173.583 211.675 165.499V109.177C211.675 101.095 218.221 94.5424 226.294 94.5424H282.557C290.632 94.5424 297.178 101.095 297.178 109.177V165.499C297.178 173.583 290.632 180.135 282.557 180.135Z" fill="#C1D7F0"/>
<path d="M286.104 115.61V157.405C286.104 161.96 283.302 165.862 279.328 167.474C279.094 167.569 278.858 167.655 278.615 167.734C277.558 168.08 276.427 168.266 275.254 168.266H233.503C227.51 168.266 222.652 163.403 222.652 157.405V115.61C222.652 109.612 227.51 104.749 233.503 104.749H275.254C281.247 104.749 286.104 109.612 286.104 115.61Z" fill="#D2E4FF"/>
<path d="M254.739 115.828C253.572 115.547 252.213 115.481 250.633 115.707C250.633 115.707 247.803 115.986 245.142 117.785C243.026 119.215 239.972 122.304 243.386 130.774L245.005 133.687C244.465 140.033 241.871 140.033 241.871 140.033C241.871 140.033 243.007 140.593 243.553 140.593C243.553 140.593 244.353 140.287 244.511 139.844C244.511 139.844 244.353 140.54 244.148 140.761C244.148 140.761 248.55 141.179 250.749 139.515C251.943 138.611 253.251 136.489 254.095 134.326L257.425 134.561C257.461 135.994 256.948 137.634 255.347 139.346C255.347 139.346 259.453 139.749 260.844 138.611C260.844 138.611 260.569 139.166 260.316 139.416C260.316 139.416 264.908 139.581 266.803 138.147C268.7 136.714 267.482 113.199 254.739 115.828Z" fill="#233862"/>
<path d="M270.647 168.266H238.141C237.746 165.742 237.503 163.386 237.655 161.127C237.847 158.288 239.099 155.733 240.576 153.658C242.983 150.274 245.988 148.161 245.988 148.161C245.988 148.161 246.064 148.146 246.193 148.124C246.425 148.083 246.826 148.018 247.254 147.98H247.261C247.664 147.766 247.828 146.293 247.879 144.567C247.892 144.087 247.896 143.588 247.896 143.092C247.894 142.662 247.887 142.23 247.879 141.805C247.873 141.606 247.868 141.41 247.862 141.215C247.86 141.159 247.86 141.104 247.858 141.05C247.856 140.967 247.852 140.885 247.849 140.804C247.847 140.741 247.845 140.679 247.843 140.616C247.841 140.518 247.835 140.423 247.833 140.328C247.826 140.199 247.822 140.073 247.818 139.949C247.816 139.923 247.814 139.897 247.814 139.87C247.809 139.753 247.803 139.639 247.799 139.527C247.792 139.392 247.784 139.259 247.778 139.134L247.773 139.037C247.763 138.836 247.752 138.647 247.742 138.478C247.74 138.432 247.738 138.386 247.736 138.342C247.733 138.29 247.731 138.241 247.727 138.193C247.723 138.146 247.723 138.1 247.719 138.057C247.71 137.915 247.702 137.795 247.695 137.698C247.695 137.676 247.693 137.655 247.691 137.635C247.689 137.612 247.689 137.59 247.687 137.571C247.681 137.481 247.679 137.433 247.679 137.433L253.165 136.347H253.167L256.925 135.601L257.366 135.514L257.476 135.492V135.499C257.472 136.909 257.55 138.215 257.687 139.402C257.801 140.407 257.961 141.33 258.147 142.16V142.162C258.831 145.197 259.896 147.025 260.666 147.327C260.694 147.339 260.719 147.347 260.744 147.354C264.486 148.122 270.173 157.839 270.647 168.266Z" fill="#D9935C"/>
<path d="M247.678 137.434C247.678 137.434 247.887 140.347 247.894 143.092C253.07 142.946 255.805 138.22 256.925 135.601L247.678 137.434Z" fill="#CB7D45"/>
<path d="M245.95 140.033C245.95 140.033 258.193 140.235 258.202 132.6C258.21 124.965 259.797 119.849 251.979 119.397C244.163 118.945 242.64 121.857 242.019 124.404C241.397 126.952 242.764 139.783 245.95 140.033Z" fill="#D9935C"/>
<path d="M246.402 119.21C246.402 119.21 249.755 128.167 254.899 129.492C260.046 130.816 262.276 129.436 262.276 129.436C262.276 129.436 258.33 126.298 257.512 120.82C257.512 120.82 248.932 114.946 246.402 119.21Z" fill="#233862"/>
<path d="M247.233 119.937C247.233 119.937 244.731 121.937 244.119 123.881C243.509 125.825 243.235 129.828 242.07 129.692C242.07 129.692 239.544 123.603 242.382 120.159C245.391 116.507 247.233 119.937 247.233 119.937Z" fill="#233862"/>
<path d="M246.769 120.239C246.769 120.239 249.158 129.62 255.648 132.624C255.648 132.624 249.158 126.861 248.605 120.669C248.054 114.477 246.769 120.239 246.769 120.239Z" fill="#233862"/>
<path d="M277.737 163.631C277.528 163.133 277.322 162.641 277.121 162.157C277.018 161.914 276.917 161.675 276.817 161.439C276.815 161.426 276.811 161.42 276.811 161.42C273.981 154.694 271.74 149.616 271.521 149.244C270.89 148.176 262.266 147.117 261.002 147.123C260.084 147.123 259.582 144.083 259.379 142.418C259.32 141.96 258.801 141.72 258.419 141.981C258.331 142.042 258.238 142.103 258.147 142.161C258.033 142.233 257.921 142.305 257.809 142.376C257.695 142.445 257.581 142.513 257.467 142.579C257.392 142.624 257.316 142.667 257.24 142.71C257.153 142.759 257.067 142.805 256.98 142.851C256.902 142.893 256.822 142.934 256.744 142.975C256.666 143.015 256.588 143.054 256.507 143.093C256.427 143.132 256.351 143.17 256.273 143.207C256.21 143.236 256.149 143.264 256.085 143.293C255.971 143.346 255.857 143.397 255.741 143.444C255.661 143.48 255.577 143.514 255.497 143.547C255.44 143.571 255.381 143.595 255.324 143.617C255.009 143.741 254.693 143.854 254.382 143.956C251.753 144.821 249.295 144.902 247.879 144.567C247.843 144.558 247.809 144.55 247.776 144.541C247.054 144.355 246.396 144.997 246.552 145.728C246.742 146.593 246.79 147.539 246.303 148.017C244.112 148.505 238.782 149.867 237.784 151.766C237.067 153.127 237.001 161.142 236.613 168.266H237.451H247.691H275.254C276.427 168.266 277.558 168.08 278.615 167.734C278.858 167.655 279.094 167.569 279.328 167.474C278.79 166.162 278.256 164.876 277.737 163.631Z" fill="#F99746"/>
<path d="M266.018 168.266H260.835C262.146 166.094 263.397 164.516 264.119 164.428C264.739 164.354 265.399 165.985 266.018 168.266Z" fill="#ED7D2B"/>
<path d="M261.002 147.124C261.002 147.124 254.545 151.217 249.66 150.248C249.66 150.248 248.489 149.507 250.105 148.761C251.625 148.063 255.157 145.996 254.382 143.957C255.722 143.519 257.109 142.876 258.419 141.981C258.801 141.72 259.32 141.96 259.377 142.419C259.582 144.083 260.086 147.124 261.002 147.124Z" fill="#ED7D2B"/>
<path d="M328.001 169.649C328.001 169.649 337.832 179.717 338.311 183.599C338.788 187.48 333.569 193.555 333.569 193.555L328.001 169.649Z" fill="#ED7D2B"/>
<path d="M323.61 276.353C323.61 276.353 323.272 281.826 322.213 281.905C322.073 281.915 316.849 281.915 316.849 281.915L310.181 281.877C310.181 281.877 310.223 280.267 312.173 279.927C314.122 279.587 317.385 278.216 318.566 275.637C319.807 272.923 323.61 276.353 323.61 276.353Z" fill="#163560"/>
<path d="M338.465 276.353C338.465 276.353 338.125 281.826 337.068 281.905C336.927 281.915 331.702 281.915 331.702 281.915L325.034 281.877C325.034 281.877 325.078 280.267 327.026 279.927C328.976 279.587 332.24 278.216 333.42 275.637C334.662 272.923 338.465 276.353 338.465 276.353Z" fill="#163560"/>
<path d="M316.224 217.53C316.224 217.53 317.969 228.698 324.475 248.521C330.982 268.345 331.869 276.93 331.869 276.93L338.849 276.733C338.849 276.733 338.908 255.069 335.91 245.101C332.911 235.133 335.262 209.163 335.262 209.163L316.224 217.53Z" fill="#163560"/>
<path d="M312.827 209.774C312.827 209.774 312.58 226.603 315.49 247.264C318.398 267.927 317.412 276.698 317.412 276.698L324.378 276.93C324.378 276.93 328.541 256.26 327.347 245.918C326.154 235.576 333.048 210.431 333.048 210.431L312.827 209.774Z" fill="#1C468A"/>
<path d="M326.313 170.395L322.601 172.831L317.237 171.829C317.311 171.396 317.665 169.599 317.988 167.972C318.007 167.877 318.028 167.78 318.045 167.687C318.322 166.301 318.56 165.112 318.56 165.112L323.57 162.901L325.439 162.075C325.433 162.104 325.294 163.612 325.275 163.832C324.924 167.74 326.313 170.395 326.313 170.395Z" fill="#FFB27D"/>
<path d="M318.611 169.166C318.716 169.121 325.072 167.244 325.762 167.472C326.452 167.7 326.861 169.037 326.861 169.037L316.465 171.39C316.465 171.39 317.283 169.726 318.611 169.166Z" fill="#ED7D2B"/>
<path d="M335.724 211.852C334.648 216.772 316.72 217.355 312.099 212.889C311.571 212.38 311.546 210.012 311.744 206.819C312.133 200.581 313.378 191.198 313.426 186.403C313.449 184.087 313.768 181.72 314.192 179.569C315.091 174.985 316.465 171.39 316.465 171.39C316.465 171.39 325.222 168.555 326.861 169.037C334.753 171.358 336.802 206.933 335.724 211.852Z" fill="#FF9843"/>
<path d="M311.744 206.819C312.133 200.581 313.378 191.198 313.426 186.403C313.449 184.087 313.768 181.719 314.192 179.569L319.459 178.638C319.459 178.638 324.61 199.696 311.744 206.819Z" fill="#ED7D2B"/>
<path d="M314.597 198.124C314.597 198.124 314.956 198.984 314.203 199.561C313.447 200.137 312.96 201.071 313.133 201.755C313.304 202.438 314.958 203.551 315.532 203.371C316.106 203.192 317.273 202.292 317.146 201.933C317.022 201.571 317.931 198.77 316.534 197.693C315.135 196.614 314.597 198.124 314.597 198.124Z" fill="#FFB27D"/>
<path d="M320.487 170.127C320.487 170.127 315.351 171.09 311.257 177.129C307.163 183.166 304.471 187.657 305.224 189.833C305.977 192.011 312.852 199.558 314.036 199.558C315.222 199.558 317.134 198.697 317.241 196.755C317.241 196.755 312.403 189.495 313.356 188.407C313.764 187.943 319.638 183.166 320.478 185.325C321.865 188.893 320.487 170.127 320.487 170.127Z" fill="#FF9843"/>
<path d="M324.899 163.9C323.797 165.767 319.697 167.379 317.988 167.972C318.007 167.877 318.028 167.78 318.045 167.687C318.322 166.301 318.56 165.112 318.56 165.112L323.57 162.9C324.677 162.884 325.353 163.133 324.899 163.9Z" fill="#FCA56B"/>
<path d="M316.671 164.808C316.671 164.808 324.743 167.328 326.232 162.273C327.722 157.218 329.769 154.138 324.679 152.315C319.59 150.493 318.016 152.124 317.108 153.691C316.201 155.257 314.612 164.022 316.671 164.808Z" fill="#FFB27D"/>
<path d="M317.425 153.204C317.425 153.204 317.94 159.086 319.155 158.831C320.368 158.575 321.472 158.386 321.293 160.159C321.115 161.933 320.29 164.751 324.036 165.064C327.779 165.378 332.305 154.939 331.276 153.108C328.307 147.826 313.133 146.76 317.425 153.204Z" fill="#163560"/>
<path d="M458.449 59.4244C458.449 59.4244 454.765 63.7991 450.074 61.9677C450.074 61.9677 449.066 59.5258 449.051 57.724C449.049 57.5022 449.047 57.2889 449.042 57.084C449.017 55.0561 448.949 53.9175 448.949 53.9175C448.949 53.9175 448.952 53.9175 448.954 53.9154C449.167 53.8267 456.126 50.9687 456.12 51.2052C455.999 56.691 458.449 59.4244 458.449 59.4244Z" fill="#FFB27D"/>
<path d="M455.421 52.5128C454.75 53.7591 452.448 56.1946 449.042 57.084C449.017 55.0561 448.949 53.9175 448.949 53.9175C448.949 53.9175 448.952 53.9175 448.954 53.9154C449.148 53.8647 455.62 52.1473 455.421 52.5128Z" fill="#ED975D"/>
<path d="M447.494 53.7063C447.494 53.7063 455.316 55.5483 456.388 50.6539C457.458 45.7575 459.188 42.6988 454.238 41.3152C449.287 39.9337 447.905 41.5877 447.152 43.1339C446.396 44.6823 445.485 53.1022 447.494 53.7063Z" fill="#FFB27D"/>
<path d="M456.12 51.9868C456.227 52.0544 457.909 52.572 461.098 46.2138C461.6 45.2167 461.94 43.0579 460.773 41.1504C459.606 39.2409 455.47 37.7411 452.032 37.0884C448.595 36.4357 447.77 38.3727 446.962 40.3182C446.111 42.3608 443.657 44.0423 443.657 44.0423C446.622 45.6984 450.19 43.3283 451.429 43.7191C452.665 44.1078 453.102 46.0596 453.195 46.6848C453.288 47.3101 453.429 47.8297 454.985 47.2721C456.54 46.7123 455.687 49.4774 455.438 50.0055C455.438 50.0055 455.227 51.4144 456.12 51.9868Z" fill="#A9453D"/>
<path d="M476.276 174.066H481.013C482.007 174.066 483.11 173.072 483.387 171.249C483.661 169.426 485.704 168.431 486.147 166.939C486.588 165.446 484.324 163.346 484.324 163.346L483.946 162.86L483.551 162.351L479.8 163.236C479.8 163.236 479.707 164.13 479.648 165.271C479.608 166.092 479.587 167.043 479.633 167.877C479.745 169.867 479.076 172.009 477.312 172.396C475.544 172.784 476.276 174.066 476.276 174.066Z" fill="#2C3A64"/>
<path d="M443.294 174.066H455.852C455.972 174.043 456.063 174.016 456.118 173.988C456.957 173.568 456.694 170.355 456.595 169.362C456.573 169.178 456.561 169.071 456.561 169.071C456.561 169.071 452.144 165.535 451.537 168.243C451.518 168.327 451.494 168.41 451.471 168.492C450.705 171.027 447.278 172.176 445.299 172.497C443.786 172.744 443.393 173.625 443.294 174.066Z" fill="#2C3A64"/>
<path d="M445.824 101.57C445.824 101.57 446.495 109.946 447.285 120.015C448.355 133.692 449.644 150.493 449.77 153.676C449.992 159.202 450.876 168.042 450.876 168.042C450.876 168.042 452.971 170.144 457.169 169.259C457.169 169.259 460.908 156.638 461.975 143.285C461.992 143.066 462.009 142.846 462.024 142.625C463.018 129.033 464.562 100.408 464.562 100.408L445.824 101.57Z" fill="#2B478B"/>
<path d="M445.824 101.57C445.824 101.57 446.495 109.946 447.285 120.014L461.975 143.285C461.992 143.066 462.009 142.846 462.024 142.625C463.018 129.033 464.562 100.408 464.562 100.408L445.824 101.57Z" fill="#233862"/>
<path d="M448.886 102.563C448.886 102.563 460.975 132.9 468.924 147.156C476.873 161.411 479.357 165.391 479.357 165.391C479.357 165.391 483.91 163.568 484.324 162.324C484.324 162.324 481.285 134.802 475.961 128.093C472.954 124.302 469.422 112.924 469.255 108.947C469.091 104.967 468.179 97.0942 468.179 97.0942L448.886 102.563Z" fill="#2B478B"/>
<path d="M476.455 97.0519L476.584 99.0037C476.584 99.0037 475.299 102.47 478.899 104.247C478.899 104.247 480.441 104.87 480.502 103.668C480.566 102.466 480.369 102.918 480.494 101.226C480.618 99.536 479.954 97.937 478.837 97.3983L477.92 96.3379L476.455 97.0519Z" fill="#FFB27D"/>
<path d="M477.863 98.4735C476.525 98.9024 476.309 98.8052 476.309 98.8052C476.309 98.8052 469.798 86.9358 469.137 85.8501C468.479 84.7643 455.312 72.5401 455.312 72.5401L458.694 59.9082C458.694 59.9082 473.67 79.3229 475.288 82.1091C477.96 86.7119 479.525 97.4026 479.525 97.4026C479.525 97.4026 478.913 98.1356 477.863 98.4735Z" fill="#1E3D70"/>
<path d="M443.273 77.4999C443.32 80.0939 443.47 83.009 443.672 85.9726C443.685 86.1479 443.697 86.3233 443.71 86.4986C443.841 88.3342 443.98 90.172 444.143 91.9654C444.208 92.6857 444.278 93.3954 444.349 94.0946L444.36 94.1876C444.366 94.4495 444.398 94.7326 444.425 94.9924C445.086 101.708 445.778 107.016 445.907 107.096C446.061 107.2 446.232 107.25 446.422 107.227C448.181 107.007 453.431 107.407 457.73 106.471C461.357 105.704 464.48 104.253 467.791 102.295C468.23 102.035 469.23 101.346 469.15 100.831C469.07 100.267 468.922 99.4494 468.734 98.4207C468.082 94.8487 466.955 88.7018 466.571 81.5092C466.497 80.1699 466.388 78.8455 466.246 77.5464C465.879 74.156 465.288 70.9368 464.495 68.0767C463.02 62.7662 460.855 58.6978 458.137 57.1051C457.783 56.9065 455.873 58.1232 454.119 59.2512C452.499 60.2905 450.792 60.5778 449.133 60.4321L447.673 62.048C445.905 64.1076 444.022 66.8452 443.51 70.7404C443.47 71.0277 443.438 71.3318 443.408 71.6571C443.267 73.2435 443.233 75.2503 443.273 77.4999Z" fill="#2A4E96"/>
<path d="M443.273 77.4999C443.32 80.0939 443.47 83.0089 443.672 85.9726C443.685 86.1479 443.697 86.3232 443.71 86.4985C453.763 80.1995 455.309 68.6745 455.309 68.6745C450.365 68.892 446.436 70.0306 443.408 71.6571C443.267 73.2435 443.233 75.2502 443.273 77.4999Z" fill="#1E3D70"/>
<path d="M413.573 66.4079L411.744 65.4679C411.744 65.4679 410.562 61.5706 406.15 62.1283C406.15 62.1283 404.354 62.4937 405.105 63.6133C405.858 64.735 405.73 64.209 406.755 65.8101C407.781 67.4113 409.448 68.4548 410.809 68.2689L412.339 68.6745L413.573 66.4079Z" fill="#ED975D"/>
<path d="M411.782 66.917C412.299 65.5144 413.105 65.6053 413.105 65.6053C413.105 65.6053 428.051 69.3336 429.391 69.4941C430.733 69.6547 445.485 63.7274 445.485 63.7274C445.485 63.7274 451.292 61.1186 454.012 63.5014C456.375 65.5715 456.483 68.1929 455.93 70.3961C455.269 73.0196 453.052 74.9588 450.372 75.2989C444.351 76.0678 432.345 77.5105 429.827 77.1599C424.225 76.3804 411.533 69.0463 411.533 69.0463C411.533 69.0463 411.374 68.0197 411.782 66.917Z" fill="#2A4E96"/>
<path d="M200.973 178.692C200.973 178.692 201.398 174.056 196.223 174.056C196.223 174.056 197.791 174.48 198.602 175.334C198.602 175.334 195.301 173.393 191.709 176.373C188.117 179.354 190.349 186.829 189.257 188.249C188.165 189.668 183.911 189.953 184.431 194.542C184.951 199.132 197.931 204.879 197.097 208.675C197.097 208.675 202.184 201.191 198.547 197.776C198.547 197.776 200.319 199.446 200.5 201.434C200.5 201.434 200.981 197.554 198.515 196.314C196.333 195.215 194.545 191.198 194.734 190.482C194.923 189.763 200.973 178.692 200.973 178.692Z" fill="#2C3A64"/>
<path d="M196.274 200.505C195.476 196.658 190.493 195.465 188.136 198.608C187.712 199.172 187.414 199.839 187.316 200.627C186.778 204.993 193.752 222.78 194.751 224.389C196.569 227.321 207.276 237.372 207.276 237.372L209.249 236.174C209.249 236.174 201.655 223.303 200.479 222.099C199.12 220.707 197.789 207.809 196.274 200.505Z" fill="#ED985F"/>
<path d="M195.125 198.12C195.125 198.12 196.643 199.698 197.336 201.59C197.336 201.59 194.915 208.551 189.257 209.423C189.257 209.423 193.734 198.116 195.125 198.12Z" fill="#AA413E"/>
<path d="M199.509 178.04C199.579 177.757 193.378 180.845 193.063 181.196C190.155 184.423 190.985 188.637 192.649 188.68C193.716 188.705 193.509 190.482 193.509 190.482L205.398 185.446C205.398 185.446 203.967 177.089 199.509 178.04Z" fill="#2C3A64"/>
<path d="M186.437 278.947L183.864 278.569C183.864 278.569 175.213 271.687 173.925 258.844C173.793 257.538 173.766 256.212 173.863 254.875C173.874 254.721 173.857 254.566 173.773 254.435C173.773 254.435 173.772 254.433 173.77 254.433C173.494 254.007 172.804 252.942 171.872 251.43C170.952 249.938 169.378 247.118 167.646 243.954C164.527 238.255 160.895 231.44 159.649 229.271C155.68 222.353 157.594 217.699 157.594 217.699C157.594 217.699 168.666 216.605 171.7 213.948L172.793 215.633C172.793 215.633 175.192 226.265 175.079 226.314C175.197 226.677 175.317 227.044 175.439 227.418C177.332 233.27 179.51 240.58 180.697 246.535C181.365 249.885 181.718 252.805 181.528 254.794C181.463 255.477 181.542 256.525 181.724 257.819C182.795 265.449 186.437 278.947 186.437 278.947Z" fill="#2B478B"/>
<path d="M191.834 282.204H181.099C181.099 282.204 180.842 280.567 181.403 279.325C181.94 278.132 182.706 278.094 181.501 276.227C182.183 276.93 184.375 277.219 185.927 277.01C186.117 277.319 187.153 279.391 187.788 279.847C188.49 280.352 191.618 280.17 191.834 282.204Z" fill="#233862"/>
<path d="M175.439 227.418C174.501 232.596 172.287 241.212 167.646 243.954C164.527 238.255 160.895 231.44 159.649 229.271C155.68 222.353 157.594 217.699 157.594 217.699C157.594 217.699 168.666 216.605 171.7 213.948L172.793 215.633C172.793 215.633 175.192 226.265 175.079 226.314C175.197 226.677 175.317 227.044 175.439 227.418Z" fill="#233862"/>
<path d="M167.91 218.5L167.947 216.489C163.947 216.994 154.155 211.704 154.155 211.704C154.155 211.704 149.97 214.491 149.397 222.448C149.118 226.333 147.349 242.756 147.153 247.661C147.082 249.438 147.058 250.707 147.05 251.214C147.051 251.216 147.051 251.218 147.051 251.218C147.048 251.372 146.976 251.51 146.881 251.632C146.053 252.686 145.335 253.802 144.713 254.959C138.61 266.326 141.801 281.773 141.801 281.773L143.219 281.412C143.219 281.412 148.38 265.398 151.753 258.472C152.325 257.298 152.845 256.385 153.28 255.855C154.549 254.313 155.886 251.694 157.204 248.542C159.696 242.585 162.115 234.723 163.84 228.635C163.962 228.656 167.91 218.5 167.91 218.5Z" fill="#2B478B"/>
<path d="M191.318 205.086C184.779 203.585 188.957 194.385 189.336 194.548C190.242 194.362 192.232 192.769 194.012 189.66L194.252 189.869L198.268 193.394C198.268 193.394 197.34 194.765 196.559 196.107C195.949 197.159 195.43 198.194 195.512 198.551C195.835 198.804 193.062 205.488 191.318 205.086Z" fill="#FFB27D"/>
<path d="M198.268 193.394C198.268 193.394 197.339 194.763 196.559 196.109C194.062 194.567 194.059 191.472 194.251 189.869L198.268 193.394Z" fill="#ED985F"/>
<path d="M198.379 195.16C198.379 195.16 192.317 191.783 194.476 188.035C196.635 184.288 197.306 181.329 201.268 183.327C205.231 185.325 205.153 187.184 204.735 188.61C204.319 190.036 200.012 195.942 198.379 195.16Z" fill="#FFB27D"/>
<path d="M205.761 186.426C205.482 184.761 204.638 184.603 204.049 184.713C201.81 181.008 198.152 182.455 198.152 182.455C196.198 184.907 193.373 185.327 193.373 185.327C193.373 185.327 194.077 186.637 196.975 187.448C197.861 187.695 198.866 187.545 199.835 187.22C197.824 188.342 195.721 188.773 195.721 188.773C199.541 189.121 203.176 185.625 203.553 185.251C203.729 185.794 204.039 186.929 203.853 187.757C203.602 188.885 202.602 190.925 203.212 191.189C203.212 191.189 206.176 188.921 205.761 186.426Z" fill="#2C3A64"/>
<path d="M150.337 282.204H139.603C139.603 282.204 139.346 280.567 139.907 279.325C140.444 278.132 141.285 277.591 141.084 276.148C141.766 276.852 142.877 277.64 144.429 277.431C144.62 277.739 145.657 279.391 146.292 279.847C146.993 280.352 150.121 280.17 150.337 282.204Z" fill="#233862"/>
<path d="M192.087 212.378C190.707 212.86 188.768 213.124 186.785 213.342C183.962 213.65 181.048 213.861 179.521 214.47C178.964 214.691 178.592 214.966 178.476 215.317C177.814 217.309 174.898 220.382 174.898 220.382C156.207 219.531 154.155 211.704 154.155 211.704C166.73 197.066 188.023 192.828 188.023 192.828C188.023 192.828 189.544 192.184 193.374 195.23C195.93 197.264 195.593 198.046 195.593 198.046C195.593 198.046 196.152 210.959 192.087 212.378Z" fill="#C65447"/>
<path d="M186.785 213.342C183.962 213.65 181.048 213.861 179.521 214.47C178.898 205.137 183.297 198.118 183.297 198.118C183.297 198.118 186.166 209.81 186.785 213.342Z" fill="#AA413E"/>
<path d="M270.343 281.915H218.607C211.182 281.915 205.161 275.889 205.161 268.455V216.664C205.161 209.231 211.182 203.204 218.607 203.204H270.343C277.769 203.204 283.789 209.231 283.789 216.664V268.455C283.789 275.889 277.769 281.915 270.343 281.915Z" fill="#C1D7F0"/>
<path d="M273.606 222.579V261.013C273.606 263.645 272.589 266.036 270.926 267.821C269.105 269.777 266.509 271.001 263.629 271.001H225.235C222.275 271.001 219.614 269.71 217.786 267.657C216.214 265.893 215.258 263.565 215.258 261.013V222.579C215.258 217.064 219.726 212.592 225.235 212.592H263.629C269.139 212.592 273.606 217.064 273.606 222.579Z" fill="#D2E4FF"/>
<path d="M236.915 241.523C236.915 241.523 231.342 231.404 236.453 226.937C241.563 222.469 250.561 225.137 252.217 226.937C253.874 228.739 256.077 233.863 251.506 241.149L236.915 241.523Z" fill="#2C3A64"/>
<path d="M239.223 245.686C239.223 245.686 239.023 251.934 238.223 254.733L231.901 259.148L255.699 262.712L250.023 254.862C250.023 254.862 248.309 246.487 249.208 243.388C250.107 240.289 239.223 245.686 239.223 245.686Z" fill="#B56F40"/>
<path d="M239.189 246.55C239.189 246.548 241.072 251.085 244.617 250.984C248.16 250.884 248.968 246.871 248.968 246.871L239.189 246.55Z" fill="#99592E"/>
<path d="M244.21 249.233C241.641 249.186 236.915 245.762 236.915 241.522V234.907C236.915 233.358 237.993 232.093 239.31 232.093H249.109C250.428 232.093 251.506 233.358 251.506 234.907V241.149C251.506 245.595 247.155 249.283 244.21 249.233Z" fill="#B56F40"/>
<path d="M270.926 267.821C269.105 269.777 266.509 271.001 263.629 271.001H225.235C222.275 271.001 219.614 269.71 217.786 267.657C226.016 256.71 231.232 256.022 231.367 256.007C232.34 255.705 234.705 255.016 238.246 254.653C238.246 254.744 241.002 258.789 244.254 259.237C246.273 258.438 247.786 257.657 249.995 254.718C252.498 255.01 255.277 255.589 258.157 256.315L258.155 256.301C258.155 256.301 263.032 257.526 270.926 267.821Z" fill="#74ACBE"/>
<path d="M236.915 237.589C236.915 237.589 238.696 232.142 244.539 232.993C250.379 233.842 250.886 235.09 251.506 236.542C252.127 237.991 253.325 231.244 253.325 231.244L246.436 229.193C246.436 229.193 238.096 230.143 237.499 231.542C236.9 232.942 236.9 232.942 236.9 232.942L236.915 237.589Z" fill="#2C3A64"/>
<path d="M243.733 227.051C243.733 227.051 237.558 221.434 240.209 220.234C242.857 219.036 243.733 227.051 243.733 227.051Z" fill="#2C3A64"/>
<path d="M243.484 227.199C243.484 227.199 235.678 224.254 237.698 222.163C239.719 220.071 243.484 227.199 243.484 227.199Z" fill="#2C3A64"/>
<path d="M243.994 227.361C243.994 227.361 242.718 220.118 245.803 220.171C248.888 220.224 243.994 227.361 243.994 227.361Z" fill="#2C3A64"/>
<path d="M244.427 226.888C244.427 226.888 247.771 219.098 250.884 219.826C253.996 220.555 244.427 226.888 244.427 226.888Z" fill="#2C3A64"/>
<path d="M244.256 227.361C244.256 227.361 249.578 220.764 252.378 222.306C255.176 223.851 244.256 227.361 244.256 227.361Z" fill="#2C3A64"/>
<path d="M189.689 196.314C189.689 196.314 182.616 197.013 182.048 201.614C181.481 206.214 188.831 224.957 189.883 226.654C191.799 229.744 203.082 240.333 203.082 240.333L205.161 239.072C205.161 239.072 197.159 225.509 195.919 224.241C193.974 222.247 192.085 197.907 189.689 196.314Z" fill="#FFB27D"/>
<path d="M182.253 204.383C182.271 204.487 188.781 206.51 192.971 204.383C192.971 204.383 193.867 194.706 188.866 195.23C183.864 195.756 180.902 197.334 180.776 199.73C180.65 202.127 182.253 204.383 182.253 204.383Z" fill="#C65447"/>
<path d="M203.082 240.333C203.082 240.333 202.209 243.656 203.082 245.158C203.956 246.662 205.161 247.824 205.161 247.824V239.072L203.082 240.333Z" fill="#FFB27D"/>
<path d="M441.222 281.915H385.994L404.147 203.204H456.713L459.131 204.269L441.222 281.915Z" fill="#CCA07F"/>
<path d="M438.561 281.915H383.331L401.484 203.204H456.713L438.561 281.915Z" fill="#E3F0FF"/>
<path d="M441.885 214.271H416.394C415.833 214.271 415.265 214.731 415.135 215.295C415.006 215.859 415.36 216.32 415.922 216.32H441.412C441.975 216.32 442.541 215.859 442.672 215.295C442.803 214.731 442.448 214.271 441.885 214.271Z" fill="#CBE2F7"/>
<path d="M441.336 219.731H414.426C414.253 219.731 414.079 219.871 414.039 220.044C413.999 220.215 414.109 220.357 414.28 220.357H441.191C441.364 220.357 441.537 220.215 441.577 220.044C441.617 219.871 441.507 219.731 441.336 219.731Z" fill="#CBE2F7"/>
<path d="M441.003 221.174H414.092C413.919 221.174 413.746 221.316 413.708 221.487C413.668 221.66 413.776 221.799 413.947 221.799H440.859C441.03 221.799 441.203 221.66 441.243 221.487C441.283 221.316 441.176 221.174 441.003 221.174Z" fill="#CBE2F7"/>
<path d="M404.694 216.32H411.579C412.142 216.32 412.71 215.859 412.839 215.295C412.969 214.731 412.615 214.271 412.052 214.271H405.166C404.603 214.271 404.035 214.731 403.904 215.295C403.776 215.859 404.13 216.32 404.694 216.32Z" fill="#CBE2F7"/>
<path d="M437.686 230.158H412.197C411.634 230.158 411.066 230.621 410.938 231.183C410.807 231.746 411.161 232.209 411.725 232.209H437.213C437.776 232.209 438.344 231.746 438.473 231.183C438.604 230.621 438.249 230.158 437.686 230.158Z" fill="#CBE2F7"/>
<path d="M437.137 235.618H410.226C410.055 235.618 409.882 235.76 409.842 235.933C409.802 236.104 409.91 236.246 410.083 236.246H436.994C437.164 236.246 437.337 236.104 437.378 235.933C437.418 235.76 437.31 235.618 437.137 235.618Z" fill="#CBE2F7"/>
<path d="M436.806 237.061H409.893C409.722 237.061 409.549 237.203 409.509 237.376C409.469 237.547 409.577 237.689 409.75 237.689H436.66C436.833 237.689 437.006 237.547 437.046 237.376C437.084 237.203 436.977 237.061 436.806 237.061Z" fill="#CBE2F7"/>
<path d="M400.494 232.209H407.382C407.945 232.209 408.511 231.746 408.642 231.183C408.773 230.621 408.418 230.158 407.855 230.158H400.967C400.404 230.158 399.836 230.621 399.707 231.183C399.577 231.746 399.931 232.209 400.494 232.209Z" fill="#CBE2F7"/>
<path d="M434.341 246.047H408.853C408.289 246.047 407.722 246.508 407.591 247.072C407.462 247.636 407.817 248.096 408.38 248.096H433.868C434.432 248.096 434.997 247.636 435.128 247.072C435.259 246.508 434.904 246.047 434.341 246.047Z" fill="#CBE2F7"/>
<path d="M433.792 251.508H406.882C406.709 251.508 406.536 251.649 406.496 251.82C406.458 251.993 406.565 252.133 406.736 252.133H433.649C433.82 252.133 433.993 251.993 434.033 251.82C434.073 251.649 433.965 251.508 433.792 251.508Z" fill="#CBE2F7"/>
<path d="M433.459 252.95H406.548C406.377 252.95 406.204 253.092 406.164 253.263C406.124 253.436 406.232 253.576 406.405 253.576H433.315C433.486 253.576 433.659 253.436 433.7 253.263C433.74 253.092 433.632 252.95 433.459 252.95Z" fill="#CBE2F7"/>
<path d="M397.15 248.096H404.035C404.599 248.096 405.166 247.636 405.297 247.072C405.426 246.508 405.071 246.047 404.51 246.047H397.623C397.059 246.047 396.492 246.508 396.363 247.072C396.232 247.636 396.587 248.096 397.15 248.096Z" fill="#CBE2F7"/>
<path d="M430.437 262.583H404.949C404.386 262.583 403.82 263.043 403.689 263.607C403.558 264.171 403.913 264.634 404.476 264.634H429.965C430.528 264.634 431.096 264.171 431.226 263.607C431.355 263.043 431.001 262.583 430.437 262.583Z" fill="#CBE2F7"/>
<path d="M429.891 268.043H402.978C402.807 268.043 402.634 268.185 402.594 268.356C402.554 268.529 402.662 268.671 402.835 268.671H429.745C429.918 268.671 430.091 268.529 430.131 268.356C430.169 268.185 430.062 268.043 429.891 268.043Z" fill="#CBE2F7"/>
<path d="M429.557 269.486H402.647C402.474 269.486 402.301 269.627 402.261 269.799C402.223 269.972 402.33 270.113 402.501 270.113H429.412C429.585 270.113 429.758 269.972 429.798 269.799C429.838 269.627 429.728 269.486 429.557 269.486Z" fill="#CBE2F7"/>
<path d="M400.606 262.583H393.721C393.157 262.583 392.59 263.043 392.459 263.607C392.33 264.171 392.685 264.634 393.248 264.634H400.134C400.697 264.634 401.265 264.171 401.393 263.607C401.524 263.043 401.17 262.583 400.606 262.583Z" fill="#CBE2F7"/>
<path d="M437.66 209.009H416.257C414.793 209.009 413.708 207.645 414.037 206.217L414.843 202.721H441.195L440.213 206.975C439.939 208.166 438.88 209.009 437.66 209.009Z" fill="#EE9849"/>
<path d="M441.195 202.721L443.007 203.204H441.083L441.195 202.721Z" fill="#ED7D2B"/>
<path d="M453.83 280.086C453.83 280.589 453.626 281.047 453.294 281.379C453.054 281.619 452.746 281.793 452.404 281.871C452.273 281.9 452.138 281.915 452.001 281.915H400.507C399.503 281.915 398.68 281.091 398.68 280.086C398.68 279.583 398.884 279.125 399.216 278.791C399.547 278.459 400.005 278.254 400.507 278.254H452.001C452.138 278.254 452.273 278.271 452.404 278.301C453.218 278.485 453.83 279.215 453.83 280.086Z" fill="#EE9849"/>
<path d="M452.402 278.254L459.127 279.744L452.402 281.915V278.254Z" fill="#739AF0"/>
<path d="M411.853 278.254V281.915H400.507C399.503 281.915 398.68 281.091 398.68 280.086C398.68 279.583 398.884 279.125 399.216 278.791C399.547 278.459 400.005 278.254 400.507 278.254H411.853Z" fill="#739AF0"/>
</svg>
